<svg width="35" height="36" viewBox="0 0 35 36" fill="none" xmlns="http://www.w3.org/2000/svg">
<path d="M17.4287 21.5313C22.3613 21.5313 26.5731 22.3133 26.5731 25.4426C26.5731 28.5706 22.3883 29.381 17.4287 29.381C12.4961 29.381 8.28434 28.5991 8.28434 25.4711C8.28434 22.3418 12.4691 21.5313 17.4287 21.5313ZM25.3153 19.647C27.2011 19.6121 29.2285 19.871 29.9776 20.0548C31.5648 20.3669 32.6087 21.0039 33.0412 21.9296C33.4068 22.6895 33.4068 23.5712 33.0412 24.3299C32.3796 25.7657 30.2467 26.2267 29.4177 26.3458C29.2465 26.3717 29.1088 26.2228 29.1268 26.0506C29.5503 22.072 26.1816 20.1856 25.3102 19.7519C25.2729 19.7325 25.2651 19.7027 25.269 19.6846C25.2716 19.6716 25.287 19.6509 25.3153 19.647ZM9.33449 19.6443L9.6896 19.6475C9.71791 19.6514 9.73207 19.6721 9.73465 19.6838C9.73851 19.7032 9.73079 19.7317 9.69474 19.7524C8.82201 20.1861 5.45338 22.0725 5.87687 26.0498C5.89489 26.2233 5.75845 26.3709 5.58725 26.3463C4.75828 26.2272 2.62537 25.7663 1.96374 24.3304C1.59688 23.5705 1.59688 22.6901 1.96374 21.9301C2.39624 21.0044 3.43889 20.3674 5.02602 20.0541C5.77647 19.8715 7.80254 19.6126 9.6896 19.6475L9.33449 19.6443ZM17.4287 6.37976C20.787 6.37976 23.4799 9.08567 23.4799 12.4648C23.4799 15.8427 20.787 18.5512 17.4287 18.5512C14.0704 18.5512 11.3775 15.8427 11.3775 12.4648C11.3775 9.08567 14.0704 6.37976 17.4287 6.37976ZM25.6436 7.39454C28.8874 7.39454 31.4347 10.4643 30.5672 13.8836C29.9815 16.1855 27.8614 17.7146 25.4994 17.6524C25.2626 17.6459 25.0296 17.6239 24.8043 17.5851C24.6408 17.5566 24.5585 17.3715 24.6511 17.2342C25.5522 15.9007 26.0658 14.2966 26.0658 12.5746C26.0658 10.7776 25.5046 9.10224 24.5301 7.72857C24.4992 7.68585 24.4761 7.61982 24.507 7.57062C24.5327 7.53049 24.5803 7.50977 24.6254 7.49941C24.9536 7.43209 25.2909 7.39454 25.6436 7.39454ZM9.35942 7.39441C9.71212 7.39441 10.0494 7.43196 10.3789 7.49928C10.4227 7.50964 10.4716 7.53165 10.4973 7.57049C10.5269 7.61969 10.505 7.68572 10.4742 7.72844C9.49973 9.10212 8.93851 10.7774 8.93851 12.5745C8.93851 14.2964 9.4521 15.9006 10.3532 17.2341C10.4458 17.3713 10.3635 17.5565 10.2 17.585C9.97343 17.6251 9.74173 17.6458 9.50488 17.6523C7.14284 17.7144 5.0228 16.1854 4.43712 13.8834C3.56825 10.4641 6.11565 7.39441 9.35942 7.39441Z" fill="#5D7285"/>
</svg>
