<svg width="35" height="36" viewBox="0 0 35 36" fill="none" xmlns="http://www.w3.org/2000/svg">
<path d="M17.4287 21.5313C22.3613 21.5313 26.573 22.3133 26.573 25.4426C26.573 28.5706 22.3883 29.381 17.4287 29.381C12.4961 29.381 8.28431 28.5991 8.28431 25.4711C8.28431 22.3418 12.469 21.5313 17.4287 21.5313ZM25.3153 19.647C27.2011 19.6121 29.2284 19.871 29.9776 20.0548C31.5647 20.3669 32.6087 21.0039 33.0412 21.9296C33.4067 22.6895 33.4067 23.5712 33.0412 24.3299C32.3795 25.7657 30.2466 26.2267 29.4177 26.3458C29.2465 26.3717 29.1087 26.2228 29.1267 26.0506C29.5502 22.072 26.1816 20.1856 25.3102 19.7519C25.2728 19.7325 25.2651 19.7027 25.269 19.6846C25.2715 19.6716 25.287 19.6509 25.3153 19.647ZM9.33446 19.6443L9.68956 19.6475C9.71788 19.6514 9.73204 19.6721 9.73462 19.6838C9.73848 19.7032 9.73076 19.7317 9.69471 19.7524C8.82198 20.1861 5.45335 22.0725 5.87684 26.0498C5.89486 26.2233 5.75841 26.3709 5.58722 26.3463C4.75825 26.2272 2.62534 25.7663 1.96371 24.3304C1.59685 23.5705 1.59685 22.6901 1.96371 21.9301C2.39621 21.0044 3.43886 20.3674 5.02599 20.0541C5.77644 19.8715 7.80251 19.6126 9.68956 19.6475L9.33446 19.6443ZM17.4287 6.37976C20.787 6.37976 23.4799 9.08567 23.4799 12.4648C23.4799 15.8427 20.787 18.5512 17.4287 18.5512C14.0703 18.5512 11.3775 15.8427 11.3775 12.4648C11.3775 9.08567 14.0703 6.37976 17.4287 6.37976ZM25.6435 7.39454C28.8873 7.39454 31.4347 10.4643 30.5671 13.8836C29.9815 16.1855 27.8614 17.7146 25.4994 17.6524C25.2625 17.6459 25.0295 17.6239 24.8043 17.5851C24.6408 17.5566 24.5584 17.3715 24.6511 17.2342C25.5522 15.9007 26.0658 14.2966 26.0658 12.5746C26.0658 10.7776 25.5045 9.10224 24.5301 7.72857C24.4992 7.68585 24.476 7.61982 24.5069 7.57062C24.5327 7.53049 24.5803 7.50977 24.6254 7.49941C24.9536 7.43209 25.2908 7.39454 25.6435 7.39454ZM9.35939 7.39441C9.71209 7.39441 10.0493 7.43196 10.3789 7.49928C10.4226 7.50964 10.4715 7.53165 10.4973 7.57049C10.5269 7.61969 10.505 7.68572 10.4741 7.72844C9.4997 9.10212 8.93848 10.7774 8.93848 12.5745C8.93848 14.2964 9.45207 15.9006 10.3531 17.2341C10.4458 17.3713 10.3634 17.5565 10.1999 17.585C9.9734 17.6251 9.7417 17.6458 9.50485 17.6523C7.14281 17.7144 5.02277 16.1854 4.43709 13.8834C3.56822 10.4641 6.11562 7.39441 9.35939 7.39441Z" fill="#5D7285"/>
</svg>
