<svg width="35" height="36" viewBox="0 0 35 36" fill="none" xmlns="http://www.w3.org/2000/svg">
<path d="M17.4286 21.5313C22.3612 21.5313 26.573 22.3133 26.573 25.4426C26.573 28.5706 22.3882 29.381 17.4286 29.381C12.496 29.381 8.28422 28.5991 8.28422 25.4711C8.28422 22.3418 12.469 21.5313 17.4286 21.5313ZM25.3152 19.647C27.201 19.6121 29.2283 19.871 29.9775 20.0548C31.5646 20.3669 32.6086 21.0039 33.0411 21.9296C33.4066 22.6895 33.4066 23.5712 33.0411 24.3299C32.3794 25.7657 30.2465 26.2267 29.4176 26.3458C29.2464 26.3717 29.1086 26.2228 29.1267 26.0506C29.5501 22.072 26.1815 20.1856 25.3101 19.7519C25.2727 19.7325 25.265 19.7027 25.2689 19.6846C25.2714 19.6716 25.2869 19.6509 25.3152 19.647ZM9.33437 19.6443L9.68947 19.6475C9.71779 19.6514 9.73195 19.6721 9.73453 19.6838C9.73839 19.7032 9.73066 19.7317 9.69462 19.7524C8.82189 20.1861 5.45325 22.0725 5.87675 26.0498C5.89477 26.2233 5.75832 26.3709 5.58712 26.3463C4.75816 26.2272 2.62525 25.7663 1.96362 24.3304C1.59676 23.5705 1.59676 22.6901 1.96362 21.9301C2.39612 21.0044 3.43876 20.3674 5.0259 20.0541C5.77634 19.8715 7.80242 19.6126 9.68947 19.6475L9.33437 19.6443ZM17.4286 6.37976C20.7869 6.37976 23.4798 9.08567 23.4798 12.4648C23.4798 15.8427 20.7869 18.5512 17.4286 18.5512C14.0702 18.5512 11.3774 15.8427 11.3774 12.4648C11.3774 9.08567 14.0702 6.37976 17.4286 6.37976ZM25.6435 7.39454C28.8872 7.39454 31.4346 10.4643 30.567 13.8836C29.9814 16.1855 27.8613 17.7146 25.4993 17.6524C25.2624 17.6459 25.0295 17.6239 24.8042 17.5851C24.6407 17.5566 24.5583 17.3715 24.651 17.2342C25.5521 15.9007 26.0657 14.2966 26.0657 12.5746C26.0657 10.7776 25.5044 9.10224 24.53 7.72857C24.4991 7.68585 24.4759 7.61982 24.5068 7.57062C24.5326 7.53049 24.5802 7.50977 24.6253 7.49941C24.9535 7.43209 25.2908 7.39454 25.6435 7.39454ZM9.3593 7.39441C9.712 7.39441 10.0492 7.43196 10.3788 7.49928C10.4225 7.50964 10.4715 7.53165 10.4972 7.57049C10.5268 7.61969 10.5049 7.68572 10.474 7.72844C9.49961 9.10212 8.93838 10.7774 8.93838 12.5745C8.93838 14.2964 9.45198 15.9006 10.353 17.2341C10.4457 17.3713 10.3633 17.5565 10.1999 17.585C9.9733 17.6251 9.7416 17.6458 9.50476 17.6523C7.14272 17.7144 5.02268 16.1854 4.437 13.8834C3.56813 10.4641 6.11552 7.39441 9.3593 7.39441Z" fill="#5D7285"/>
</svg>
