<svg width="30" height="30" viewBox="0 0 30 30" fill="none" xmlns="http://www.w3.org/2000/svg">
<path d="M15.1663 18.2051C19.3514 18.2051 22.9249 18.8685 22.9249 21.5236C22.9249 24.1776 19.3744 24.8652 15.1663 24.8652C10.9812 24.8652 7.40773 24.2017 7.40773 21.5478C7.40773 18.8927 10.9583 18.2051 15.1663 18.2051ZM21.8578 16.6063C23.4578 16.5766 25.1779 16.7963 25.8135 16.9523C27.1602 17.2171 28.0459 17.7575 28.4129 18.5429C28.723 19.1878 28.723 19.9358 28.4129 20.5796C27.8515 21.7978 26.0418 22.1888 25.3385 22.2899C25.1932 22.3119 25.0763 22.1855 25.0916 22.0395C25.451 18.6638 22.5928 17.0633 21.8534 16.6953C21.8218 16.6788 21.8152 16.6535 21.8185 16.6382C21.8207 16.6272 21.8338 16.6096 21.8578 16.6063ZM8.29873 16.604L8.60003 16.6067C8.62405 16.61 8.63607 16.6276 8.63825 16.6375C8.64153 16.654 8.63497 16.6781 8.60439 16.6957C7.86392 17.0637 5.00578 18.6642 5.36509 22.0388C5.38038 22.186 5.26461 22.3112 5.11936 22.2903C4.41602 22.1893 2.60633 21.7982 2.04497 20.58C1.73371 19.9352 1.73371 19.1882 2.04497 18.5434C2.41193 17.758 3.29657 17.2175 4.64318 16.9517C5.2799 16.7968 6.99894 16.5771 8.60003 16.6067L8.29873 16.604ZM15.1663 5.34961C18.0157 5.34961 20.3005 7.64546 20.3005 10.5125C20.3005 13.3785 18.0157 15.6765 15.1663 15.6765C12.3169 15.6765 10.0322 13.3785 10.0322 10.5125C10.0322 7.64546 12.3169 5.34961 15.1663 5.34961ZM22.1363 6.21061C24.8885 6.21061 27.0499 8.81513 26.3138 11.7163C25.8168 13.6694 24.0181 14.9667 22.014 14.914C21.813 14.9085 21.6153 14.8898 21.4242 14.8568C21.2855 14.8327 21.2156 14.6756 21.2943 14.5592C22.0588 13.4277 22.4945 12.0667 22.4945 10.6057C22.4945 9.08097 22.0183 7.65952 21.1916 6.49402C21.1654 6.45777 21.1457 6.40175 21.1719 6.36C21.1938 6.32595 21.2342 6.30837 21.2724 6.29959C21.5509 6.24246 21.837 6.21061 22.1363 6.21061ZM8.31989 6.2105C8.61914 6.2105 8.90528 6.24235 9.18487 6.29948C9.222 6.30826 9.2635 6.32694 9.28535 6.35989C9.31047 6.40164 9.2919 6.45766 9.26569 6.49391C8.43893 7.65941 7.96276 9.08086 7.96276 10.6056C7.96276 12.0666 8.39853 13.4276 9.16303 14.559C9.24166 14.6755 9.17176 14.8326 9.03306 14.8567C8.84084 14.8908 8.64426 14.9084 8.4433 14.9139C6.43922 14.9666 4.64045 13.6693 4.14353 11.7161C3.40633 8.81502 5.56768 6.2105 8.31989 6.2105Z" fill="#5D7285"/>
</svg>
