<svg width="30" height="30" viewBox="0 0 30 30" fill="none" xmlns="http://www.w3.org/2000/svg">
<path d="M15.1663 18.2049C19.3514 18.2049 22.9249 18.8684 22.9249 21.5234C22.9249 24.1774 19.3744 24.8651 15.1663 24.8651C10.9812 24.8651 7.40773 24.2016 7.40773 21.5476C7.40773 18.8926 10.9583 18.2049 15.1663 18.2049ZM21.8578 16.6062C23.4578 16.5765 25.1779 16.7962 25.8135 16.9522C27.1602 17.2169 28.0459 17.7574 28.4129 18.5428C28.723 19.1876 28.723 19.9357 28.4129 20.5794C27.8515 21.7976 26.0418 22.1887 25.3385 22.2898C25.1932 22.3117 25.0763 22.1854 25.0916 22.0393C25.451 18.6636 22.5928 17.0631 21.8534 16.6951C21.8218 16.6787 21.8152 16.6534 21.8185 16.638C21.8207 16.627 21.8338 16.6094 21.8578 16.6062ZM8.29873 16.6039L8.60003 16.6066C8.62405 16.6099 8.63607 16.6275 8.63825 16.6373C8.64153 16.6538 8.63497 16.678 8.60439 16.6956C7.86392 17.0636 5.00578 18.6641 5.36509 22.0386C5.38038 22.1858 5.26461 22.3111 5.11936 22.2902C4.41602 22.1891 2.60633 21.7981 2.04497 20.5798C1.73371 19.935 1.73371 19.188 2.04497 18.5432C2.41193 17.7578 3.29657 17.2174 4.64318 16.9515C5.2799 16.7966 6.99894 16.5769 8.60003 16.6066L8.29873 16.6039ZM15.1663 5.34946C18.0157 5.34946 20.3005 7.64531 20.3005 10.5124C20.3005 13.3783 18.0157 15.6764 15.1663 15.6764C12.3169 15.6764 10.0322 13.3783 10.0322 10.5124C10.0322 7.64531 12.3169 5.34946 15.1663 5.34946ZM22.1363 6.21046C24.8885 6.21046 27.0499 8.81498 26.3138 11.7161C25.8168 13.6692 24.0181 14.9665 22.014 14.9138C21.813 14.9083 21.6153 14.8896 21.4242 14.8567C21.2855 14.8325 21.2156 14.6754 21.2943 14.559C22.0588 13.4276 22.4945 12.0665 22.4945 10.6055C22.4945 9.08082 22.0183 7.65937 21.1916 6.49387C21.1654 6.45762 21.1457 6.40159 21.1719 6.35985C21.1938 6.3258 21.2342 6.30822 21.2724 6.29943C21.5509 6.24231 21.837 6.21046 22.1363 6.21046ZM8.31989 6.21035C8.61914 6.21035 8.90528 6.2422 9.18487 6.29932C9.222 6.30811 9.2635 6.32679 9.28535 6.35974C9.31047 6.40148 9.2919 6.45751 9.26569 6.49376C8.43893 7.65926 7.96276 9.08071 7.96276 10.6054C7.96276 12.0664 8.39853 13.4274 9.16303 14.5589C9.24166 14.6753 9.17176 14.8324 9.03306 14.8566C8.84084 14.8906 8.64426 14.9082 8.4433 14.9137C6.43922 14.9664 4.64045 13.6691 4.14353 11.716C3.40633 8.81487 5.56768 6.21035 8.31989 6.21035Z" fill="#0C7FDA"/>
</svg>
