<svg width="35" height="36" viewBox="0 0 35 36" fill="none" xmlns="http://www.w3.org/2000/svg">
<path d="M17.4286 21.5312C22.3612 21.5312 26.573 22.3132 26.573 25.4425C26.573 28.5705 22.3882 29.381 17.4286 29.381C12.496 29.381 8.28422 28.599 8.28422 25.471C8.28422 22.3417 12.469 21.5312 17.4286 21.5312ZM25.3152 19.6469C27.201 19.612 29.2283 19.8709 29.9775 20.0548C31.5646 20.3668 32.6086 21.0038 33.0411 21.9295C33.4066 22.6895 33.4066 23.5711 33.0411 24.3298C32.3794 25.7656 30.2465 26.2266 29.4176 26.3457C29.2464 26.3716 29.1086 26.2227 29.1267 26.0505C29.5501 22.0719 26.1815 20.1855 25.3101 19.7518C25.2727 19.7324 25.265 19.7026 25.2689 19.6845C25.2714 19.6715 25.2869 19.6508 25.3152 19.6469ZM9.33437 19.6442L9.68947 19.6474C9.71779 19.6513 9.73195 19.672 9.73453 19.6837C9.73839 19.7031 9.73066 19.7316 9.69462 19.7523C8.82189 20.186 5.45325 22.0724 5.87675 26.0497C5.89477 26.2232 5.75832 26.3708 5.58712 26.3462C4.75816 26.2271 2.62525 25.7662 1.96362 24.3304C1.59676 23.5704 1.59676 22.69 1.96362 21.93C2.39612 21.0043 3.43876 20.3673 5.0259 20.054C5.77634 19.8714 7.80242 19.6125 9.68947 19.6474L9.33437 19.6442ZM17.4286 6.37967C20.7869 6.37967 23.4798 9.08558 23.4798 12.4647C23.4798 15.8426 20.7869 18.5511 17.4286 18.5511C14.0702 18.5511 11.3774 15.8426 11.3774 12.4647C11.3774 9.08558 14.0702 6.37967 17.4286 6.37967ZM25.6435 7.39445C28.8872 7.39445 31.4346 10.4642 30.567 13.8835C29.9814 16.1854 27.8613 17.7145 25.4993 17.6523C25.2624 17.6458 25.0295 17.6238 24.8042 17.585C24.6407 17.5565 24.5583 17.3714 24.651 17.2341C25.5521 15.9006 26.0657 14.2965 26.0657 12.5745C26.0657 10.7775 25.5044 9.10215 24.53 7.72848C24.4991 7.68576 24.4759 7.61973 24.5068 7.57053C24.5326 7.53039 24.5802 7.50968 24.6253 7.49932C24.9535 7.432 25.2908 7.39445 25.6435 7.39445ZM9.3593 7.39432C9.712 7.39432 10.0492 7.43187 10.3788 7.49919C10.4225 7.50955 10.4715 7.53156 10.4972 7.5704C10.5268 7.6196 10.5049 7.68563 10.474 7.72835C9.49961 9.10202 8.93838 10.7774 8.93838 12.5744C8.93838 14.2963 9.45198 15.9005 10.353 17.234C10.4457 17.3712 10.3633 17.5564 10.1999 17.5849C9.9733 17.625 9.7416 17.6457 9.50476 17.6522C7.14272 17.7143 5.02268 16.1853 4.437 13.8833C3.56813 10.464 6.11552 7.39432 9.3593 7.39432Z" fill="#0C7FDA"/>
</svg>
