<svg width="30" height="30" viewBox="0 0 30 30" fill="none" xmlns="http://www.w3.org/2000/svg">
<path d="M15.1663 18.2051C19.3514 18.2051 22.9249 18.8685 22.9249 21.5236C22.9249 24.1776 19.3743 24.8652 15.1663 24.8652C10.9812 24.8652 7.40767 24.2017 7.40767 21.5478C7.40767 18.8927 10.9582 18.2051 15.1663 18.2051ZM21.8577 16.6063C23.4577 16.5766 25.1779 16.7963 25.8135 16.9523C27.1601 17.2171 28.0458 17.7575 28.4128 18.5429C28.723 19.1878 28.723 19.9358 28.4128 20.5796C27.8514 21.7978 26.0417 22.1888 25.3384 22.2899C25.1931 22.3119 25.0763 22.1855 25.0916 22.0395C25.4509 18.6638 22.5927 17.0633 21.8534 16.6953C21.8217 16.6788 21.8151 16.6535 21.8184 16.6382C21.8206 16.6272 21.8337 16.6096 21.8577 16.6063ZM8.29867 16.604L8.59997 16.6067C8.62399 16.61 8.63601 16.6276 8.63819 16.6375C8.64147 16.654 8.63491 16.6781 8.60433 16.6957C7.86386 17.0637 5.00571 18.6642 5.36503 22.0388C5.38032 22.186 5.26455 22.3112 5.1193 22.2903C4.41596 22.1893 2.60627 21.7982 2.04491 20.58C1.73365 19.9352 1.73365 19.1882 2.04491 18.5434C2.41187 17.758 3.29651 17.2175 4.64312 16.9517C5.27984 16.7968 6.99888 16.5771 8.59997 16.6067L8.29867 16.604ZM15.1663 5.34961C18.0157 5.34961 20.3004 7.64546 20.3004 10.5125C20.3004 13.3785 18.0157 15.6765 15.1663 15.6765C12.3169 15.6765 10.0321 13.3785 10.0321 10.5125C10.0321 7.64546 12.3169 5.34961 15.1663 5.34961ZM22.1362 6.21061C24.8884 6.21061 27.0498 8.81513 26.3137 11.7163C25.8168 13.6694 24.018 14.9667 22.0139 14.914C21.813 14.9085 21.6153 14.8898 21.4242 14.8568C21.2855 14.8327 21.2156 14.6756 21.2942 14.5592C22.0587 13.4277 22.4945 12.0667 22.4945 10.6057C22.4945 9.08097 22.0183 7.65952 21.1915 6.49402C21.1653 6.45777 21.1457 6.40175 21.1719 6.36C21.1937 6.32595 21.2341 6.30837 21.2723 6.29959C21.5508 6.24246 21.837 6.21061 22.1362 6.21061ZM8.31983 6.2105C8.61908 6.2105 8.90522 6.24235 9.18481 6.29948C9.22194 6.30826 9.26344 6.32694 9.28529 6.35989C9.31041 6.40164 9.29184 6.45766 9.26563 6.49391C8.43887 7.65941 7.9627 9.08086 7.9627 10.6056C7.9627 12.0666 8.39846 13.4276 9.16297 14.559C9.2416 14.6755 9.1717 14.8326 9.033 14.8567C8.84078 14.8908 8.6442 14.9084 8.44324 14.9139C6.43916 14.9666 4.64039 13.6693 4.14347 11.7161C3.40627 8.81502 5.56762 6.2105 8.31983 6.2105Z" fill="#5D7285"/>
</svg>
