<svg width="23" height="23" viewBox="0 0 23 23" fill="none" xmlns="http://www.w3.org/2000/svg">
<path d="M12.1508 7.53527C12.2039 7.58696 12.4308 7.78213 12.6174 7.96393C13.7911 9.02978 15.7121 11.8103 16.2985 13.2655C16.3927 13.4866 16.5922 14.0453 16.605 14.3439C16.605 14.6299 16.5391 14.9026 16.4056 15.1629C16.2189 15.4873 15.9253 15.7475 15.5786 15.8901C15.338 15.9819 14.618 16.1244 14.6052 16.1244C13.8176 16.267 12.5378 16.3455 11.1235 16.3455C9.77604 16.3455 8.54839 16.267 7.74886 16.1503C7.73605 16.1369 6.84138 15.9943 6.53493 15.8384C5.97507 15.5523 5.62745 14.9935 5.62745 14.3956V14.3439C5.64117 13.9544 5.9888 13.1354 6.0016 13.1354C6.5889 11.7586 8.41574 9.04226 9.62968 7.95056C9.62968 7.95056 9.94162 7.64311 10.1365 7.50943C10.4164 7.30089 10.7631 7.19752 11.1098 7.19752C11.4968 7.19752 11.8572 7.31426 12.1508 7.53527Z" fill="#0C7FDA"/>
</svg>
