<svg width="35" height="36" viewBox="0 0 35 36" fill="none" xmlns="http://www.w3.org/2000/svg">
<path d="M17.4014 3.5199C25.5668 3.5199 31.7484 10.2147 31.7484 17.8741C31.7484 26.7573 24.503 32.2715 17.3726 32.2715C15.015 32.2715 12.3986 31.638 10.2997 30.3998C9.56657 29.9535 8.94841 29.6224 8.15774 29.8815L5.25383 30.7454C4.52066 30.9757 3.85937 30.3998 4.07501 29.6224L5.03819 26.3974C5.19632 25.951 5.16757 25.4759 4.93756 25.1016C3.70124 22.8268 2.99683 20.3361 2.99683 17.9173C2.99683 10.3443 9.04904 3.5199 17.4014 3.5199ZM23.9711 16.0888C22.9504 16.0888 22.131 16.9095 22.131 17.9317C22.131 18.9395 22.9504 19.7746 23.9711 19.7746C24.9918 19.7746 25.8112 18.9395 25.8112 17.9317C25.8112 16.9095 24.9918 16.0888 23.9711 16.0888ZM17.3439 16.0888C16.3376 16.0744 15.5038 16.9095 15.5038 17.9173C15.5038 18.9395 16.3232 19.7602 17.3439 19.7746C18.3646 19.7746 19.184 18.9395 19.184 17.9317C19.184 16.9095 18.3646 16.0888 17.3439 16.0888ZM10.7166 16.0888C9.69595 16.0888 8.87653 16.9095 8.87653 17.9317C8.87653 18.9395 9.71033 19.7746 10.7166 19.7746C11.7373 19.7602 12.5567 18.9395 12.5567 17.9317C12.5567 16.9095 11.7373 16.0888 10.7166 16.0888Z" fill="#5D7285"/>
</svg>
