<svg width="35" height="36" viewBox="0 0 35 36" fill="none" xmlns="http://www.w3.org/2000/svg">
<path d="M17.4015 3.5199C25.567 3.5199 31.7486 10.2147 31.7486 17.8741C31.7486 26.7573 24.5032 32.2715 17.3728 32.2715C15.0151 32.2715 12.3987 31.638 10.2999 30.3998C9.56669 29.9535 8.94853 29.6224 8.15786 29.8815L5.25395 30.7454C4.52078 30.9757 3.8595 30.3998 4.07513 29.6224L5.03831 26.3974C5.19645 25.951 5.16769 25.4759 4.93768 25.1016C3.70136 22.8268 2.99695 20.3361 2.99695 17.9173C2.99695 10.3443 9.04916 3.5199 17.4015 3.5199ZM23.9712 16.0888C22.9506 16.0888 22.1311 16.9095 22.1311 17.9317C22.1311 18.9395 22.9506 19.7746 23.9712 19.7746C24.9919 19.7746 25.8114 18.9395 25.8114 17.9317C25.8114 16.9095 24.9919 16.0888 23.9712 16.0888ZM17.344 16.0888C16.3377 16.0744 15.5039 16.9095 15.5039 17.9173C15.5039 18.9395 16.3233 19.7602 17.344 19.7746C18.3647 19.7746 19.1841 18.9395 19.1841 17.9317C19.1841 16.9095 18.3647 16.0888 17.344 16.0888ZM10.7168 16.0888C9.69607 16.0888 8.87665 16.9095 8.87665 17.9317C8.87665 18.9395 9.71045 19.7746 10.7168 19.7746C11.7374 19.7602 12.5569 18.9395 12.5569 17.9317C12.5569 16.9095 11.7374 16.0888 10.7168 16.0888Z" fill="#5D7285"/>
</svg>
