<svg width="36" height="36" viewBox="0 0 36 36" fill="none" xmlns="http://www.w3.org/2000/svg">
<path d="M17.9015 3.5199C26.067 3.5199 32.2486 10.2147 32.2486 17.8741C32.2486 26.7573 25.0032 32.2715 17.8728 32.2715C15.5151 32.2715 12.8987 31.638 10.7999 30.3998C10.0667 29.9535 9.44853 29.6224 8.65786 29.8815L5.75395 30.7454C5.02078 30.9757 4.3595 30.3998 4.57513 29.6224L5.53831 26.3974C5.69645 25.951 5.66769 25.4759 5.43768 25.1016C4.20136 22.8268 3.49695 20.3361 3.49695 17.9173C3.49695 10.3443 9.54916 3.5199 17.9015 3.5199ZM24.4712 16.0888C23.4506 16.0888 22.6311 16.9095 22.6311 17.9317C22.6311 18.9395 23.4506 19.7746 24.4712 19.7746C25.4919 19.7746 26.3114 18.9395 26.3114 17.9317C26.3114 16.9095 25.4919 16.0888 24.4712 16.0888ZM17.844 16.0888C16.8377 16.0744 16.0039 16.9095 16.0039 17.9173C16.0039 18.9395 16.8233 19.7602 17.844 19.7746C18.8647 19.7746 19.6841 18.9395 19.6841 17.9317C19.6841 16.9095 18.8647 16.0888 17.844 16.0888ZM11.2168 16.0888C10.1961 16.0888 9.37665 16.9095 9.37665 17.9317C9.37665 18.9395 10.2104 19.7746 11.2168 19.7746C12.2374 19.7602 13.0569 18.9395 13.0569 17.9317C13.0569 16.9095 12.2374 16.0888 11.2168 16.0888Z" fill="#0C7FDA"/>
</svg>
