<svg width="30" height="30" viewBox="0 0 30 30" fill="none" xmlns="http://www.w3.org/2000/svg">
<path d="M15.2531 3.09729C22.1812 3.09729 27.426 8.77753 27.426 15.2762C27.426 22.8132 21.2786 27.4918 15.2287 27.4918C13.2284 27.4918 11.0085 26.9543 9.2277 25.9038C8.60564 25.5251 8.08116 25.2441 7.41031 25.464L4.94646 26.1969C4.3244 26.3924 3.76333 25.9038 3.94629 25.2441L4.7635 22.5078C4.89767 22.1292 4.87328 21.726 4.67812 21.4084C3.62916 19.4784 3.03149 17.3651 3.03149 15.3129C3.03149 8.88747 8.16654 3.09729 15.2531 3.09729ZM20.8273 13.7615C19.9613 13.7615 19.266 14.4578 19.266 15.3251C19.266 16.1802 19.9613 16.8887 20.8273 16.8887C21.6933 16.8887 22.3885 16.1802 22.3885 15.3251C22.3885 14.4578 21.6933 13.7615 20.8273 13.7615ZM15.2044 13.7615C14.3505 13.7493 13.6431 14.4578 13.6431 15.3129C13.6431 16.1802 14.3383 16.8765 15.2044 16.8887C16.0704 16.8887 16.7656 16.1802 16.7656 15.3251C16.7656 14.4578 16.0704 13.7615 15.2044 13.7615ZM9.58142 13.7615C8.71541 13.7615 8.02017 14.4578 8.02017 15.3251C8.02017 16.1802 8.72761 16.8887 9.58142 16.8887C10.4474 16.8765 11.1427 16.1802 11.1427 15.3251C11.1427 14.4578 10.4474 13.7615 9.58142 13.7615Z" fill="#5D7285"/>
</svg>
