<svg width="30" height="30" viewBox="0 0 30 30" fill="none" xmlns="http://www.w3.org/2000/svg">
<path d="M15.2528 3.09741C22.1808 3.09741 27.4256 8.77766 27.4256 15.2763C27.4256 22.8134 21.2782 27.4919 15.2284 27.4919C13.228 27.4919 11.0081 26.9544 9.22733 25.9039C8.60527 25.5252 8.08079 25.2443 7.40994 25.4641L4.9461 26.1971C4.32404 26.3925 3.76296 25.9039 3.94592 25.2443L4.76314 22.508C4.89731 22.1293 4.87291 21.7262 4.67776 21.4086C3.62879 19.4785 3.03113 17.3652 3.03113 15.313C3.03113 8.8876 8.16617 3.09741 15.2528 3.09741ZM20.8269 13.7616C19.9609 13.7616 19.2657 14.4579 19.2657 15.3252C19.2657 16.1803 19.9609 16.8888 20.8269 16.8888C21.6929 16.8888 22.3882 16.1803 22.3882 15.3252C22.3882 14.4579 21.6929 13.7616 20.8269 13.7616ZM15.204 13.7616C14.3502 13.7494 13.6427 14.4579 13.6427 15.313C13.6427 16.1803 14.338 16.8766 15.204 16.8888C16.07 16.8888 16.7652 16.1803 16.7652 15.3252C16.7652 14.4579 16.07 13.7616 15.204 13.7616ZM9.58105 13.7616C8.71505 13.7616 8.0198 14.4579 8.0198 15.3252C8.0198 16.1803 8.72725 16.8888 9.58105 16.8888C10.4471 16.8766 11.1423 16.1803 11.1423 15.3252C11.1423 14.4579 10.4471 13.7616 9.58105 13.7616Z" fill="#5D7285"/>
</svg>
