<svg width="30" height="30" viewBox="0 0 30 30" fill="none" xmlns="http://www.w3.org/2000/svg">
<path d="M15.2531 3.09741C22.1812 3.09741 27.426 8.77766 27.426 15.2763C27.426 22.8134 21.2786 27.4919 15.2287 27.4919C13.2284 27.4919 11.0085 26.9544 9.2277 25.9039C8.60564 25.5252 8.08116 25.2443 7.41031 25.4641L4.94646 26.1971C4.3244 26.3925 3.76333 25.9039 3.94629 25.2443L4.7635 22.508C4.89767 22.1293 4.87328 21.7262 4.67812 21.4086C3.62916 19.4785 3.03149 17.3652 3.03149 15.313C3.03149 8.8876 8.16654 3.09741 15.2531 3.09741ZM20.8273 13.7616C19.9613 13.7616 19.266 14.4579 19.266 15.3252C19.266 16.1803 19.9613 16.8888 20.8273 16.8888C21.6933 16.8888 22.3885 16.1803 22.3885 15.3252C22.3885 14.4579 21.6933 13.7616 20.8273 13.7616ZM15.2044 13.7616C14.3505 13.7494 13.6431 14.4579 13.6431 15.313C13.6431 16.1803 14.3383 16.8766 15.2044 16.8888C16.0704 16.8888 16.7656 16.1803 16.7656 15.3252C16.7656 14.4579 16.0704 13.7616 15.2044 13.7616ZM9.58142 13.7616C8.71541 13.7616 8.02017 14.4579 8.02017 15.3252C8.02017 16.1803 8.72761 16.8888 9.58142 16.8888C10.4474 16.8766 11.1427 16.1803 11.1427 15.3252C11.1427 14.4579 10.4474 13.7616 9.58142 13.7616Z" fill="#5D7285"/>
</svg>
