<svg width="30" height="30" viewBox="0 0 30 30" fill="none" xmlns="http://www.w3.org/2000/svg">
<path d="M15.2528 3.09741C22.1809 3.09741 27.4257 8.77766 27.4257 15.2763C27.4257 22.8134 21.2783 27.4919 15.2284 27.4919C13.2281 27.4919 11.0082 26.9544 9.22739 25.9039C8.60533 25.5252 8.08085 25.2443 7.41 25.4641L4.94616 26.1971C4.3241 26.3925 3.76302 25.9039 3.94598 25.2443L4.7632 22.508C4.89737 22.1293 4.87297 21.7262 4.67782 21.4086C3.62885 19.4785 3.03119 17.3652 3.03119 15.313C3.03119 8.8876 8.16623 3.09741 15.2528 3.09741ZM20.827 13.7616C19.961 13.7616 19.2657 14.4579 19.2657 15.3252C19.2657 16.1803 19.961 16.8888 20.827 16.8888C21.693 16.8888 22.3882 16.1803 22.3882 15.3252C22.3882 14.4579 21.693 13.7616 20.827 13.7616ZM15.204 13.7616C14.3502 13.7494 13.6428 14.4579 13.6428 15.313C13.6428 16.1803 14.338 16.8766 15.204 16.8888C16.0701 16.8888 16.7653 16.1803 16.7653 15.3252C16.7653 14.4579 16.0701 13.7616 15.204 13.7616ZM9.58111 13.7616C8.71511 13.7616 8.01987 14.4579 8.01987 15.3252C8.01987 16.1803 8.72731 16.8888 9.58111 16.8888C10.4471 16.8766 11.1424 16.1803 11.1424 15.3252C11.1424 14.4579 10.4471 13.7616 9.58111 13.7616Z" fill="#5D7285"/>
</svg>
