<svg width="30" height="30" viewBox="0 0 30 30" fill="none" xmlns="http://www.w3.org/2000/svg">
<path d="M20.3404 2.55054C24.1081 2.55054 26.206 4.72165 26.206 8.44181V21.0416C26.206 24.8227 24.1081 26.945 20.3404 26.945H10.1179C6.40989 26.945 4.25098 24.8227 4.25098 21.0416V8.44181C4.25098 4.72165 6.40989 2.55054 10.1179 2.55054H20.3404ZM10.4472 19.3096C10.0813 19.273 9.72754 19.4437 9.53239 19.7609C9.33723 20.0658 9.33723 20.4683 9.53239 20.7854C9.72754 21.0904 10.0813 21.2733 10.4472 21.2245H20.0098C20.4965 21.1757 20.8636 20.7598 20.8636 20.2731C20.8636 19.7731 20.4965 19.3584 20.0098 19.3096H10.4472ZM20.0098 13.7464H10.4472C9.92148 13.7464 9.4958 14.1745 9.4958 14.699C9.4958 15.2235 9.92148 15.6504 10.4472 15.6504H20.0098C20.5343 15.6504 20.9612 15.2235 20.9612 14.699C20.9612 14.1745 20.5343 13.7464 20.0098 13.7464ZM14.0929 8.22226H10.4472V8.23446C9.92148 8.23446 9.4958 8.66136 9.4958 9.18584C9.4958 9.71033 9.92148 10.1372 10.4472 10.1372H14.0929C14.6186 10.1372 15.0455 9.71032 15.0455 9.17243C15.0455 8.64916 14.6186 8.22226 14.0929 8.22226Z" fill="#5D7285"/>
</svg>
