<svg width="30" height="30" viewBox="0 0 30 30" fill="none" xmlns="http://www.w3.org/2000/svg">
<path d="M20.3403 2.55054C24.1081 2.55054 26.206 4.72165 26.206 8.44181V21.0416C26.206 24.8227 24.1081 26.945 20.3403 26.945H10.1178C6.40986 26.945 4.25095 24.8227 4.25095 21.0416V8.44181C4.25095 4.72165 6.40986 2.55054 10.1178 2.55054H20.3403ZM10.4472 19.3096C10.0812 19.273 9.72751 19.4437 9.53236 19.7609C9.3372 20.0658 9.3372 20.4683 9.53236 20.7854C9.72751 21.0904 10.0812 21.2733 10.4472 21.2245H20.0098C20.4965 21.1757 20.8636 20.7598 20.8636 20.2731C20.8636 19.7731 20.4965 19.3584 20.0098 19.3096H10.4472ZM20.0098 13.7464H10.4472C9.92145 13.7464 9.49577 14.1745 9.49577 14.699C9.49577 15.2235 9.92145 15.6504 10.4472 15.6504H20.0098C20.5343 15.6504 20.9612 15.2235 20.9612 14.699C20.9612 14.1745 20.5343 13.7464 20.0098 13.7464ZM14.0929 8.22226H10.4472V8.23446C9.92145 8.23446 9.49577 8.66136 9.49577 9.18584C9.49577 9.71033 9.92145 10.1372 10.4472 10.1372H14.0929C14.6186 10.1372 15.0455 9.71032 15.0455 9.17243C15.0455 8.64916 14.6186 8.22226 14.0929 8.22226Z" fill="#0C7FDA"/>
</svg>
