<svg width="30" height="30" viewBox="0 0 30 30" fill="none" xmlns="http://www.w3.org/2000/svg">
<path d="M20.3404 2.55048C24.1081 2.55048 26.206 4.72159 26.206 8.44175V21.0415C26.206 24.8227 24.1081 26.945 20.3404 26.945H10.1179C6.40989 26.945 4.25098 24.8227 4.25098 21.0415V8.44175C4.25098 4.72159 6.40989 2.55048 10.1179 2.55048H20.3404ZM10.4472 19.3095C10.0813 19.2729 9.72754 19.4437 9.53239 19.7608C9.33723 20.0657 9.33723 20.4682 9.53239 20.7854C9.72754 21.0903 10.0813 21.2733 10.4472 21.2245H20.0098C20.4965 21.1757 20.8636 20.7598 20.8636 20.2731C20.8636 19.773 20.4965 19.3583 20.0098 19.3095H10.4472ZM20.0098 13.7463H10.4472C9.92148 13.7463 9.4958 14.1745 9.4958 14.6989C9.4958 15.2234 9.92148 15.6503 10.4472 15.6503H20.0098C20.5343 15.6503 20.9612 15.2234 20.9612 14.6989C20.9612 14.1745 20.5343 13.7463 20.0098 13.7463ZM14.0929 8.2222H10.4472V8.2344C9.92148 8.2344 9.4958 8.6613 9.4958 9.18578C9.4958 9.71026 9.92148 10.1372 10.4472 10.1372H14.0929C14.6186 10.1372 15.0455 9.71026 15.0455 9.17236C15.0455 8.6491 14.6186 8.2222 14.0929 8.2222Z" fill="#5D7285"/>
</svg>
