<svg width="35" height="36" viewBox="0 0 35 36" fill="none" xmlns="http://www.w3.org/2000/svg">
<path d="M23.5268 3.51599C27.9675 3.51599 30.4402 6.07488 30.4402 10.4595V25.3097C30.4402 29.7662 27.9675 32.2676 23.5268 32.2676H11.4785C7.10824 32.2676 4.56372 29.7662 4.56372 25.3097V10.4595C4.56372 6.07488 7.10824 3.51599 11.4785 3.51599H23.5268ZM11.8666 23.2683C11.4354 23.2252 11.0185 23.4265 10.7884 23.8003C10.5584 24.1596 10.5584 24.634 10.7884 25.0078C11.0185 25.3672 11.4354 25.5829 11.8666 25.5253H23.1373C23.7109 25.4678 24.1436 24.9776 24.1436 24.404C24.1436 23.8146 23.7109 23.3258 23.1373 23.2683H11.8666ZM23.1373 16.7115H11.8666C11.247 16.7115 10.7453 17.2161 10.7453 17.8343C10.7453 18.4525 11.247 18.9556 11.8666 18.9556H23.1373C23.7554 18.9556 24.2586 18.4525 24.2586 17.8343C24.2586 17.2161 23.7554 16.7115 23.1373 16.7115ZM16.1636 10.2007H11.8666V10.2151C11.247 10.2151 10.7453 10.7183 10.7453 11.3364C10.7453 11.9546 11.247 12.4577 11.8666 12.4577H16.1636C16.7832 12.4577 17.2863 11.9546 17.2863 11.3206C17.2863 10.7039 16.7832 10.2007 16.1636 10.2007Z" fill="#5D7285"/>
</svg>
