<svg width="35" height="36" viewBox="0 0 35 36" fill="none" xmlns="http://www.w3.org/2000/svg">
<path d="M23.5249 3.51608C27.9656 3.51608 30.4382 6.07498 30.4382 10.4596V25.3098C30.4382 29.7663 27.9656 32.2677 23.5249 32.2677H11.4765C7.10628 32.2677 4.56177 29.7663 4.56177 25.3098V10.4596C4.56177 6.07498 7.10628 3.51608 11.4765 3.51608H23.5249ZM11.8647 23.2684C11.4334 23.2253 11.0165 23.4266 10.7865 23.8003C10.5565 24.1597 10.5565 24.6341 10.7865 25.0079C11.0165 25.3673 11.4334 25.5829 11.8647 25.5254H23.1353C23.7089 25.4679 24.1416 24.9777 24.1416 24.4041C24.1416 23.8147 23.7089 23.3259 23.1353 23.2684H11.8647ZM23.1353 16.7116H11.8647C11.2451 16.7116 10.7434 17.2162 10.7434 17.8344C10.7434 18.4525 11.2451 18.9557 11.8647 18.9557H23.1353C23.7535 18.9557 24.2566 18.4525 24.2566 17.8344C24.2566 17.2162 23.7535 16.7116 23.1353 16.7116ZM16.1616 10.2008H11.8647V10.2152C11.2451 10.2152 10.7434 10.7184 10.7434 11.3365C10.7434 11.9547 11.2451 12.4578 11.8647 12.4578H16.1616C16.7812 12.4578 17.2844 11.9547 17.2844 11.3207C17.2844 10.704 16.7812 10.2008 16.1616 10.2008Z" fill="#5D7285"/>
</svg>
