<svg width="35" height="36" viewBox="0 0 35 36" fill="none" xmlns="http://www.w3.org/2000/svg">
<path d="M24.2069 3.52316C26.2749 3.39391 28.3142 4.11196 29.8508 5.51933C31.2582 7.05595 31.9762 9.09521 31.8613 11.1775V24.5907C31.9906 26.673 31.2582 28.7123 29.8652 30.2489C28.3285 31.6563 26.2749 32.3743 24.2069 32.2451H10.7937C8.71131 32.3743 6.67204 31.6563 5.1354 30.2489C3.72802 28.7123 3.00997 26.673 3.13922 24.5907V11.1775C3.00997 9.09521 3.72802 7.05595 5.1354 5.51933C6.67204 4.11196 8.71131 3.39391 10.7937 3.52316H24.2069ZM23.8335 10.0861C22.9431 9.19573 21.507 9.19573 20.6166 10.0861L19.6544 11.0627C19.5108 11.2063 19.5108 11.4504 19.6544 11.594C19.6544 11.594 19.6826 11.622 19.7328 11.6719L20.086 12.0232C20.2904 12.2265 20.5454 12.4804 20.8015 12.7357L21.67 13.6037C21.8511 13.7857 21.9714 13.9077 21.9809 13.9205C22.1389 14.0928 22.2394 14.3226 22.2394 14.5811C22.2394 15.0981 21.823 15.5289 21.2916 15.5289C21.0475 15.5289 20.8177 15.4284 20.6597 15.2704L18.2614 12.8865C18.1465 12.7716 17.9455 12.7716 17.8306 12.8865L10.9804 19.7367C10.5064 20.2106 10.2336 20.8425 10.2192 21.5174L10.1331 24.921C10.1331 25.1077 10.1905 25.28 10.3197 25.4092C10.449 25.5385 10.6213 25.6103 10.808 25.6103H14.1829C14.8722 25.6103 15.5328 25.3374 16.0355 24.8492L25.7004 15.1555C26.5765 14.2651 26.5765 12.8291 25.7004 11.953L23.8335 10.0861Z" fill="#5D7285"/>
</svg>
