<svg width="35" height="36" viewBox="0 0 35 36" fill="none" xmlns="http://www.w3.org/2000/svg">
<path d="M24.2068 3.52316C26.2748 3.39391 28.3141 4.11196 29.8507 5.51933C31.2581 7.05595 31.9761 9.09521 31.8613 11.1775V24.5907C31.9905 26.673 31.2581 28.7123 29.8651 30.2489C28.3284 31.6563 26.2748 32.3743 24.2068 32.2451H10.7936C8.71122 32.3743 6.67195 31.6563 5.13531 30.2489C3.72793 28.7123 3.00988 26.673 3.13913 24.5907V11.1775C3.00988 9.09521 3.72793 7.05595 5.13531 5.51933C6.67195 4.11196 8.71122 3.39391 10.7936 3.52316H24.2068ZM23.8334 10.0861C22.943 9.19573 21.5069 9.19573 20.6165 10.0861L19.6543 11.0627C19.5107 11.2063 19.5107 11.4504 19.6543 11.594C19.6543 11.594 19.6825 11.622 19.7327 11.6719L20.086 12.0232C20.2903 12.2265 20.5453 12.4804 20.8014 12.7357L21.6699 13.6037C21.8511 13.7857 21.9713 13.9077 21.9808 13.9205C22.1388 14.0928 22.2393 14.3226 22.2393 14.5811C22.2393 15.0981 21.8229 15.5289 21.2915 15.5289C21.0474 15.5289 20.8176 15.4284 20.6596 15.2704L18.2613 12.8865C18.1464 12.7716 17.9454 12.7716 17.8305 12.8865L10.9803 19.7367C10.5064 20.2106 10.2335 20.8425 10.2191 21.5174L10.133 24.921C10.133 25.1077 10.1904 25.28 10.3197 25.4092C10.4489 25.5385 10.6212 25.6103 10.8079 25.6103H14.1828C14.8721 25.6103 15.5327 25.3374 16.0354 24.8492L25.7004 15.1555C26.5764 14.2651 26.5764 12.8291 25.7004 11.953L23.8334 10.0861Z" fill="#0C7FDA"/>
</svg>
