<svg width="30" height="30" viewBox="0 0 30 30" fill="none" xmlns="http://www.w3.org/2000/svg">
<path d="M20.9189 2.46942C22.6735 2.35976 24.4037 2.96899 25.7075 4.16309C26.9016 5.46685 27.5108 7.19707 27.4133 8.96384V20.3443C27.523 22.1111 26.9016 23.8413 25.7197 25.1451C24.4159 26.3391 22.6735 26.9484 20.9189 26.8387H9.53833C7.77154 26.9484 6.0413 26.3391 4.73754 25.1451C3.54343 23.8413 2.93419 22.1111 3.04386 20.3443V8.96384C2.93419 7.19707 3.54343 5.46685 4.73754 4.16309C6.0413 2.96899 7.77154 2.35976 9.53833 2.46942H20.9189ZM20.6021 8.03781C19.8466 7.28236 18.6281 7.28236 17.8727 8.03781L17.0563 8.86636C16.9345 8.98821 16.9345 9.19535 17.0563 9.3172C17.0563 9.3172 17.0802 9.34096 17.1228 9.38328L17.4225 9.68136C17.5959 9.85385 17.8123 10.0693 18.0296 10.2859L18.7664 11.0223C18.9201 11.1768 19.0221 11.2803 19.0302 11.2911C19.1643 11.4373 19.2496 11.6323 19.2496 11.8516C19.2496 12.2902 18.8962 12.6558 18.4454 12.6558C18.2382 12.6558 18.0433 12.5705 17.9092 12.4365L15.8744 10.4138C15.7769 10.3163 15.6063 10.3163 15.5089 10.4138L9.69673 16.2259C9.29463 16.628 9.06312 17.1641 9.05094 17.7368L8.97783 20.6245C8.97783 20.7829 9.02657 20.9292 9.13623 21.0388C9.24589 21.1485 9.39211 21.2094 9.55051 21.2094H12.4139C12.9988 21.2094 13.5593 20.9779 13.9858 20.5636L22.1861 12.339C22.9294 11.5835 22.9294 10.3651 22.1861 9.62181L20.6021 8.03781Z" fill="#5D7285"/>
</svg>
