<svg width="35" height="36" viewBox="0 0 35 36" fill="none" xmlns="http://www.w3.org/2000/svg">
<path d="M24.2068 3.52325C26.2748 3.394 28.3141 4.11205 29.8507 5.51942C31.2581 7.05604 31.9761 9.0953 31.8613 11.1776V24.5908C31.9905 26.6731 31.2581 28.7124 29.8651 30.249C28.3284 31.6563 26.2748 32.3744 24.2068 32.2451H10.7936C8.71122 32.3744 6.67195 31.6563 5.13531 30.249C3.72793 28.7124 3.00988 26.6731 3.13913 24.5908V11.1776C3.00988 9.0953 3.72793 7.05604 5.13531 5.51942C6.67195 4.11205 8.71122 3.394 10.7936 3.52325H24.2068ZM23.8334 10.0862C22.943 9.19582 21.5069 9.19582 20.6165 10.0862L19.6543 11.0627C19.5107 11.2064 19.5107 11.4505 19.6543 11.5941C19.6543 11.5941 19.6825 11.6221 19.7327 11.672L20.086 12.0233C20.2903 12.2266 20.5453 12.4805 20.8014 12.7358L21.6699 13.6038C21.8511 13.7858 21.9713 13.9078 21.9808 13.9206C22.1388 14.0929 22.2393 14.3227 22.2393 14.5812C22.2393 15.0982 21.8229 15.529 21.2915 15.529C21.0474 15.529 20.8176 15.4285 20.6596 15.2705L18.2613 12.8866C18.1464 12.7717 17.9454 12.7717 17.8305 12.8866L10.9803 19.7368C10.5064 20.2107 10.2335 20.8426 10.2191 21.5175L10.133 24.9211C10.133 25.1078 10.1904 25.2801 10.3197 25.4093C10.4489 25.5386 10.6212 25.6104 10.8079 25.6104H14.1828C14.8721 25.6104 15.5327 25.3375 16.0354 24.8493L25.7004 15.1556C26.5764 14.2652 26.5764 12.8291 25.7004 11.9531L23.8334 10.0862Z" fill="#5D7285"/>
</svg>
