<svg width="30" height="30" viewBox="0 0 30 30" fill="none" xmlns="http://www.w3.org/2000/svg">
<path d="M20.9189 2.46964C22.6735 2.35998 24.4037 2.96921 25.7075 4.1633C26.9016 5.46706 27.5108 7.19728 27.4133 8.96405V20.3445C27.523 22.1113 26.9016 23.8415 25.7197 25.1453C24.4159 26.3394 22.6735 26.9486 20.9189 26.8389H9.53833C7.77154 26.9486 6.0413 26.3394 4.73754 25.1453C3.54343 23.8415 2.93419 22.1113 3.04386 20.3445V8.96405C2.93419 7.19728 3.54343 5.46706 4.73754 4.1633C6.0413 2.96921 7.77154 2.35998 9.53833 2.46964H20.9189ZM20.6021 8.03802C19.8466 7.28257 18.6281 7.28257 17.8727 8.03802L17.0563 8.86658C16.9345 8.98842 16.9345 9.19556 17.0563 9.31741C17.0563 9.31741 17.0802 9.34118 17.1228 9.3835L17.4225 9.68157C17.5959 9.85406 17.8123 10.0695 18.0296 10.2861L18.7664 11.0226C18.9201 11.177 19.0221 11.2805 19.0302 11.2913C19.1643 11.4375 19.2496 11.6325 19.2496 11.8518C19.2496 12.2905 18.8962 12.656 18.4454 12.656C18.2382 12.656 18.0433 12.5707 17.9092 12.4367L15.8744 10.414C15.7769 10.3166 15.6063 10.3166 15.5089 10.414L9.69673 16.2261C9.29463 16.6282 9.06312 17.1643 9.05094 17.737L8.97783 20.6248C8.97783 20.7832 9.02657 20.9294 9.13623 21.039C9.24589 21.1487 9.39211 21.2096 9.55051 21.2096H12.4139C12.9988 21.2096 13.5593 20.9781 13.9858 20.5638L22.1861 12.3392C22.9294 11.5838 22.9294 10.3653 22.1861 9.62203L20.6021 8.03802Z" fill="#0C7FDA"/>
</svg>
