<svg width="35" height="36" viewBox="0 0 35 36" fill="none" xmlns="http://www.w3.org/2000/svg">
<path d="M13.3828 30.4888V26.0931C13.3828 24.971 14.2991 24.0614 15.4294 24.0614H19.5612C20.104 24.0614 20.6246 24.2754 21.0084 24.6565C21.3922 25.0375 21.6079 25.5543 21.6079 26.0931V30.4888C21.6044 30.9554 21.7887 31.4039 22.1198 31.735C22.4509 32.0661 22.9014 32.2523 23.3713 32.2523H26.1902C27.5068 32.2556 28.7706 31.7388 29.7027 30.8158C30.6349 29.8929 31.1588 28.6396 31.1588 27.3326V14.8099C31.1588 13.7541 30.6873 12.7527 29.8716 12.0753L20.2821 4.47227C18.6139 3.13919 16.2239 3.18224 14.6056 4.5745L5.23488 12.0753C4.38057 12.7327 3.86996 13.7371 3.84473 14.8099V27.3198C3.84473 30.0439 6.06921 32.2523 8.81325 32.2523H11.5678C12.5439 32.2523 13.3371 31.4705 13.3441 30.5016L13.3828 30.4888Z" fill="#5D7285"/>
</svg>
