<svg width="30" height="31" viewBox="0 0 30 31" fill="none" xmlns="http://www.w3.org/2000/svg">
<path d="M11.7337 26.2616V22.532C11.7337 21.58 12.5111 20.8082 13.4701 20.8082H16.9758C17.4364 20.8082 17.8781 20.9898 18.2037 21.3131C18.5294 21.6364 18.7123 22.0748 18.7123 22.532V26.2616C18.7094 26.6574 18.8657 27.038 19.1467 27.3189C19.4276 27.5998 19.8098 27.7578 20.2085 27.7578H22.6003C23.7173 27.7607 24.7896 27.3222 25.5805 26.539C26.3713 25.7559 26.8158 24.6926 26.8158 23.5837V12.9587C26.8158 12.0629 26.4158 11.2132 25.7237 10.6385L17.5874 4.18766C16.1721 3.0566 14.1442 3.09311 12.7712 4.27439L4.82054 10.6385C4.09569 11.1963 3.66246 12.0485 3.64105 12.9587V23.5728C3.64105 25.8841 5.52843 27.7578 7.85663 27.7578H10.1938C11.0219 27.7578 11.6949 27.0945 11.7009 26.2724L11.7337 26.2616Z" fill="#5D7285"/>
</svg>
