<svg width="30" height="31" viewBox="0 0 30 31" fill="none" xmlns="http://www.w3.org/2000/svg">
<path d="M11.7337 26.2615V22.5319C11.7337 21.5799 12.5112 20.8081 13.4702 20.8081H16.9759C17.4364 20.8081 17.8781 20.9897 18.2038 21.313C18.5294 21.6363 18.7124 22.0747 18.7124 22.5319V26.2615C18.7095 26.6573 18.8658 27.0379 19.1467 27.3188C19.4276 27.5997 19.8099 27.7577 20.2086 27.7577H22.6003C23.7173 27.7606 24.7896 27.3221 25.5805 26.539C26.3714 25.7558 26.8159 24.6925 26.8159 23.5836V12.9586C26.8159 12.0628 26.4159 11.2131 25.7238 10.6384L17.5875 4.18756C16.1722 3.0565 14.1443 3.09302 12.7712 4.2743L4.8206 10.6384C4.09575 11.1962 3.66252 12.0484 3.64111 12.9586V23.5727C3.64111 25.884 5.52849 27.7577 7.8567 27.7577H10.1938C11.0219 27.7577 11.695 27.0944 11.701 26.2724L11.7337 26.2615Z" fill="#5D7285"/>
</svg>
