<svg width="35" height="36" viewBox="0 0 35 36" fill="none" xmlns="http://www.w3.org/2000/svg">
<path d="M13.3828 30.4888V26.0931C13.3828 24.971 14.2991 24.0613 15.4294 24.0613H19.5612C20.104 24.0613 20.6246 24.2754 21.0084 24.6564C21.3922 25.0374 21.6079 25.5542 21.6079 26.0931V30.4888C21.6044 30.9553 21.7887 31.4039 22.1198 31.7349C22.4509 32.066 22.9014 32.2522 23.3713 32.2522H26.1902C27.5068 32.2556 28.7706 31.7388 29.7027 30.8158C30.6349 29.8928 31.1588 28.6396 31.1588 27.3326V14.8099C31.1588 13.7541 30.6873 12.7527 29.8716 12.0753L20.2821 4.47223C18.6139 3.13915 16.2239 3.18219 14.6056 4.57445L5.23488 12.0753C4.38057 12.7327 3.86996 13.7371 3.84473 14.8099V27.3198C3.84473 30.0439 6.06921 32.2522 8.81325 32.2522H11.5678C12.5439 32.2522 13.3371 31.4705 13.3441 30.5016L13.3828 30.4888Z" fill="#5D7285"/>
</svg>
