<svg width="35" height="36" viewBox="0 0 35 36" fill="none" xmlns="http://www.w3.org/2000/svg">
<path d="M13.383 30.4888V26.0931C13.383 24.971 14.2993 24.0613 15.4296 24.0613H19.5615C20.1043 24.0613 20.6248 24.2754 21.0087 24.6564C21.3925 25.0374 21.6081 25.5542 21.6081 26.0931V30.4888C21.6047 30.9553 21.7889 31.4039 22.12 31.7349C22.4511 32.066 22.9016 32.2522 23.3715 32.2522H26.1905C27.507 32.2556 28.7708 31.7388 29.703 30.8158C30.6351 29.8928 31.159 28.6396 31.159 27.3326V14.8099C31.159 13.7541 30.6876 12.7527 29.8718 12.0753L20.2823 4.47223C18.6142 3.13915 16.2241 3.18219 14.6058 4.57445L5.23513 12.0753C4.38082 12.7327 3.8702 13.7371 3.84497 14.8099V27.3198C3.84497 30.0439 6.06946 32.2522 8.8135 32.2522H11.5681C12.5441 32.2522 13.3373 31.4705 13.3444 30.5016L13.383 30.4888Z" fill="#5D7285"/>
</svg>
