<svg width="30" height="31" viewBox="0 0 30 31" fill="none" xmlns="http://www.w3.org/2000/svg">
<path d="M11.7337 26.2616V22.532C11.7337 21.58 12.5112 20.8082 13.4702 20.8082H16.9759C17.4364 20.8082 17.8781 20.9898 18.2038 21.3131C18.5294 21.6364 18.7124 22.0748 18.7124 22.532V26.2616C18.7095 26.6574 18.8658 27.038 19.1467 27.3189C19.4276 27.5998 19.8099 27.7578 20.2086 27.7578H22.6003C23.7173 27.7607 24.7896 27.3222 25.5805 26.539C26.3714 25.7559 26.8159 24.6926 26.8159 23.5837V12.9587C26.8159 12.0629 26.4159 11.2132 25.7238 10.6385L17.5875 4.18766C16.1722 3.0566 14.1443 3.09311 12.7712 4.27439L4.8206 10.6385C4.09575 11.1963 3.66252 12.0485 3.64111 12.9587V23.5728C3.64111 25.8841 5.52849 27.7578 7.8567 27.7578H10.1938C11.0219 27.7578 11.695 27.0945 11.701 26.2724L11.7337 26.2616Z" fill="#5D7285"/>
</svg>
