<svg width="36" height="36" viewBox="0 0 36 36" fill="none" xmlns="http://www.w3.org/2000/svg">
<path d="M24.2302 3.51221C29.1026 3.51221 32.3758 6.93094 32.3758 12.018V23.7581C32.3758 28.8451 29.1026 32.2638 24.2288 32.2638H11.7698C6.89743 32.2638 3.62421 28.8451 3.62421 23.7581V12.018C3.62421 6.93094 6.89743 3.51221 11.7698 3.51221H24.2302ZM25.8155 18.6788C24.2745 17.7174 23.0848 19.0675 22.7639 19.4992C22.4545 19.9161 22.1885 20.376 21.9081 20.8359C21.2229 21.9708 20.4379 23.2793 19.0791 24.0404C17.1044 25.1338 15.6053 24.1264 14.5269 23.3935C14.1221 23.1206 13.7289 22.8624 13.3372 22.6903C12.3715 22.2734 11.5027 22.7482 10.2132 24.3861C9.53668 25.2421 8.86592 26.0907 8.18649 26.9363C7.78028 27.4422 7.87713 28.2226 8.42501 28.5608C9.2996 29.0994 10.3664 29.3887 11.5721 29.3887H23.6876C24.3714 29.3887 25.0566 29.2952 25.71 29.0816C27.1816 28.6009 28.3497 27.5001 28.9597 26.0462C29.4744 24.8237 29.7244 23.3401 29.2431 22.1058C29.0826 21.6963 28.8426 21.3151 28.5058 20.9798C27.6225 20.103 26.7971 19.2841 25.8155 18.6788ZM12.9668 9.26253C10.9849 9.26253 9.37453 10.8751 9.37453 12.8565C9.37453 14.8379 10.9849 16.4504 12.9668 16.4504C14.9473 16.4504 16.5591 14.8379 16.5591 12.8565C16.5591 10.8751 14.9473 9.26253 12.9668 9.26253Z" fill="#5D7285"/>
</svg>
