<svg width="36" height="36" viewBox="0 0 36 36" fill="none" xmlns="http://www.w3.org/2000/svg">
<path d="M24.2303 3.51221C29.1027 3.51221 32.3759 6.93094 32.3759 12.018V23.7581C32.3759 28.8451 29.1027 32.2638 24.2288 32.2638H11.7699C6.89749 32.2638 3.62427 28.8451 3.62427 23.7581V12.018C3.62427 6.93094 6.89749 3.51221 11.7699 3.51221H24.2303ZM25.8156 18.6788C24.2746 17.7174 23.0849 19.0675 22.764 19.4992C22.4546 19.9161 22.1886 20.376 21.9082 20.8359C21.2229 21.9708 20.438 23.2793 19.0791 24.0404C17.1044 25.1338 15.6054 24.1264 14.5269 23.3935C14.1222 23.1206 13.729 22.8624 13.3372 22.6903C12.3716 22.2734 11.5028 22.7482 10.2133 24.3861C9.53674 25.2421 8.86598 26.0907 8.18655 26.9363C7.78034 27.4422 7.87719 28.2226 8.42507 28.5608C9.29966 29.0994 10.3665 29.3887 11.5721 29.3887H23.6877C24.3715 29.3887 25.0567 29.2952 25.7101 29.0816C27.1817 28.6009 28.3497 27.5001 28.9598 26.0462C29.4744 24.8237 29.7245 23.3401 29.2431 22.1058C29.0827 21.6963 28.8427 21.3151 28.5059 20.9798C27.6226 20.103 26.7972 19.2841 25.8156 18.6788ZM12.9669 9.26253C10.985 9.26253 9.37459 10.8751 9.37459 12.8565C9.37459 14.8379 10.985 16.4504 12.9669 16.4504C14.9474 16.4504 16.5592 14.8379 16.5592 12.8565C16.5592 10.8751 14.9474 9.26253 12.9669 9.26253Z" fill="#5D7285"/>
</svg>
