<svg width="36" height="36" viewBox="0 0 36 36" fill="none" xmlns="http://www.w3.org/2000/svg">
<path d="M24.2302 3.51221C29.1025 3.51221 32.3758 6.93094 32.3758 12.018V23.7581C32.3758 28.8451 29.1025 32.2638 24.2287 32.2638H11.7697C6.89737 32.2638 3.62415 28.8451 3.62415 23.7581V12.018C3.62415 6.93094 6.89737 3.51221 11.7697 3.51221H24.2302ZM25.8155 18.6788C24.2745 17.7174 23.0848 19.0675 22.7638 19.4992C22.4545 19.9161 22.1885 20.376 21.908 20.8359C21.2228 21.9708 20.4379 23.2793 19.079 24.0404C17.1043 25.1338 15.6052 24.1264 14.5268 23.3935C14.1221 23.1206 13.7288 22.8624 13.3371 22.6903C12.3714 22.2734 11.5026 22.7482 10.2132 24.3861C9.53662 25.2421 8.86586 26.0907 8.18643 26.9363C7.78021 27.4422 7.87707 28.2226 8.42495 28.5608C9.29954 29.0994 10.3664 29.3887 11.572 29.3887H23.6876C24.3713 29.3887 25.0565 29.2952 25.71 29.0816C27.1816 28.6009 28.3496 27.5001 28.9597 26.0462C29.4743 24.8237 29.7244 23.3401 29.243 22.1058C29.0825 21.6963 28.8426 21.3151 28.5057 20.9798C27.6225 20.103 26.797 19.2841 25.8155 18.6788ZM12.9668 9.26253C10.9849 9.26253 9.37447 10.8751 9.37447 12.8565C9.37447 14.8379 10.9849 16.4504 12.9668 16.4504C14.9472 16.4504 16.5591 14.8379 16.5591 12.8565C16.5591 10.8751 14.9472 9.26253 12.9668 9.26253Z" fill="#5D7285"/>
</svg>
