<svg width="35" height="36" viewBox="0 0 35 36" fill="none" xmlns="http://www.w3.org/2000/svg">
<path d="M23.7321 3.51221C28.6045 3.51221 31.8777 6.93094 31.8777 12.018V23.7581C31.8777 28.8451 28.6045 32.2638 23.7307 32.2638H11.2717C6.39932 32.2638 3.1261 28.8451 3.1261 23.7581V12.018C3.1261 6.93094 6.39932 3.51221 11.2717 3.51221H23.7321ZM25.3174 18.6788C23.7764 17.7174 22.5867 19.0675 22.2658 19.4992C21.9564 19.9161 21.6904 20.376 21.41 20.8359C20.7248 21.9708 19.9398 23.2793 18.581 24.0404C16.6063 25.1338 15.1072 24.1264 14.0288 23.3935C13.624 23.1206 13.2308 22.8624 12.839 22.6903C11.8734 22.2734 11.0046 22.7482 9.71511 24.3861C9.03857 25.2421 8.36781 26.0907 7.68838 26.9363C7.28217 27.4422 7.37902 28.2226 7.9269 28.5608C8.80149 29.0994 9.86834 29.3887 11.074 29.3887H23.1895C23.8733 29.3887 24.5585 29.2952 25.2119 29.0816C26.6835 28.6009 27.8516 27.5001 28.4616 26.0462C28.9762 24.8237 29.2263 23.3401 28.745 22.1058C28.5845 21.6963 28.3445 21.3151 28.0077 20.9798C27.1244 20.103 26.299 19.2841 25.3174 18.6788ZM12.4687 9.26253C10.4868 9.26253 8.87642 10.8751 8.87642 12.8565C8.87642 14.8379 10.4868 16.4504 12.4687 16.4504C14.4492 16.4504 16.061 14.8379 16.061 12.8565C16.061 10.8751 14.4492 9.26253 12.4687 9.26253Z" fill="#0C7FDA"/>
</svg>
