<svg width="35" height="36" viewBox="0 0 35 36" fill="none" xmlns="http://www.w3.org/2000/svg">
<path d="M23.7322 3.51224C28.6046 3.51224 31.8778 6.93097 31.8778 12.018V23.7581C31.8778 28.8451 28.6046 32.2638 23.7308 32.2638H11.2718C6.39944 32.2638 3.12622 28.8451 3.12622 23.7581V12.018C3.12622 6.93097 6.39944 3.51224 11.2718 3.51224H23.7322ZM25.3176 18.6788C23.7766 17.7174 22.5868 19.0675 22.2659 19.4992C21.9566 19.9161 21.6906 20.376 21.4101 20.8359C20.7249 21.9708 19.9399 23.2793 18.5811 24.0404C16.6064 25.1338 15.1073 24.1265 14.0289 23.3936C13.6241 23.1206 13.2309 22.8625 12.8392 22.6904C11.8735 22.2735 11.0047 22.7482 9.71523 24.3861C9.03869 25.2421 8.36793 26.0907 7.6885 26.9363C7.28229 27.4422 7.37914 28.2226 7.92703 28.5609C8.80161 29.0994 9.86846 29.3887 11.0741 29.3887H23.1896C23.8734 29.3887 24.5586 29.2952 25.212 29.0816C26.6837 28.6009 27.8517 27.5001 28.4617 26.0462C28.9764 24.8237 29.2265 23.3402 28.7451 22.1058C28.5846 21.6964 28.3446 21.3151 28.0078 20.9798C27.1246 20.103 26.2991 19.2841 25.3176 18.6788ZM12.4689 9.26256C10.4869 9.26256 8.87654 10.8751 8.87654 12.8565C8.87654 14.8379 10.4869 16.4505 12.4689 16.4505C14.4493 16.4505 16.0612 14.8379 16.0612 12.8565C16.0612 10.8751 14.4493 9.26256 12.4689 9.26256Z" fill="#5D7285"/>
</svg>
