<svg width="30" height="30" viewBox="0 0 30 30" fill="none" xmlns="http://www.w3.org/2000/svg">
<path d="M20.5146 3.00366C24.6486 3.00366 27.4258 5.90431 27.4258 10.2204V20.1814C27.4258 24.4975 24.6486 27.3982 20.5133 27.3982H9.94244C5.80844 27.3982 3.03125 24.4975 3.03125 20.1814V10.2204C3.03125 5.90431 5.80844 3.00366 9.94244 3.00366H20.5146ZM21.8597 15.8718C20.5522 15.0562 19.5427 16.2016 19.2705 16.5679C19.008 16.9216 18.7823 17.3118 18.5443 17.702C17.963 18.665 17.297 19.7752 16.144 20.4209C14.4686 21.3486 13.1967 20.4939 12.2817 19.8721C11.9383 19.6405 11.6047 19.4215 11.2723 19.2755C10.4529 18.9218 9.7158 19.3246 8.62174 20.7142C8.04773 21.4405 7.47862 22.1605 6.90215 22.878C6.5575 23.3072 6.63967 23.9693 7.10453 24.2563C7.84658 24.7133 8.75175 24.9587 9.77468 24.9587H20.0542C20.6344 24.9587 21.2157 24.8794 21.7701 24.6982C23.0187 24.2903 24.0098 23.3563 24.5274 22.1228C24.964 21.0856 25.1762 19.8268 24.7677 18.7795C24.6316 18.4321 24.428 18.1086 24.1422 17.8241C23.3928 17.0802 22.6925 16.3854 21.8597 15.8718ZM10.9581 7.88256C9.2765 7.88256 7.91015 9.25077 7.91015 10.9319C7.91015 12.613 9.2765 13.9812 10.9581 13.9812C12.6384 13.9812 14.006 12.613 14.006 10.9319C14.006 9.25077 12.6384 7.88256 10.9581 7.88256Z" fill="#0C7FDA"/>
</svg>
