<svg width="35" height="34" viewBox="0 0 35 34" fill="none" xmlns="http://www.w3.org/2000/svg">
<path d="M16.7692 3.18597C20.2321 3.18597 23.0563 5.96177 23.0563 9.37921V16.0606H14.5411C13.9308 16.0606 13.4483 16.5349 13.4483 17.1347C13.4483 17.7205 13.9308 18.2087 14.5411 18.2087H23.0563V24.8762C23.0563 28.2937 20.2321 31.0834 16.7408 31.0834H9.82933C6.35229 31.0834 3.52808 28.3076 3.52808 24.8902V9.39315C3.52808 5.96177 6.36648 3.18597 9.84352 3.18597H16.7692ZM26.5995 12.3227C27.018 11.8903 27.7015 11.8903 28.1199 12.3087L32.193 16.3678C32.4022 16.577 32.5138 16.842 32.5138 17.135C32.5138 17.4139 32.4022 17.6929 32.193 17.8882L28.1199 21.9473C27.9107 22.1565 27.6317 22.2681 27.3667 22.2681C27.0877 22.2681 26.8088 22.1565 26.5995 21.9473C26.1811 21.5288 26.1811 20.8453 26.5995 20.4269L28.8313 18.209H23.0566V16.0609H28.8313L26.5995 13.8431C26.1811 13.4246 26.1811 12.7411 26.5995 12.3227Z" fill="white"/>
</svg>
