<svg width="35" height="34" viewBox="0 0 35 34" fill="none" xmlns="http://www.w3.org/2000/svg">
<path d="M16.7693 3.18591C20.2322 3.18591 23.0564 5.96171 23.0564 9.37914V16.0606H14.5412C13.9309 16.0606 13.4484 16.5348 13.4484 17.1346C13.4484 17.7205 13.9309 18.2087 14.5412 18.2087H23.0564V24.8762C23.0564 28.2936 20.2322 31.0833 16.741 31.0833H9.82945C6.35241 31.0833 3.5282 28.3076 3.5282 24.8901V9.39309C3.5282 5.96171 6.3666 3.18591 9.84364 3.18591H16.7693ZM26.5997 12.3226C27.0181 11.8902 27.7016 11.8902 28.1201 12.3087L32.1931 16.3677C32.4023 16.577 32.5139 16.842 32.5139 17.1349C32.5139 17.4139 32.4023 17.6929 32.1931 17.8881L28.1201 21.9472C27.9108 22.1564 27.6319 22.268 27.3668 22.268C27.0879 22.268 26.8089 22.1564 26.5997 21.9472C26.1812 21.5288 26.1812 20.8453 26.5997 20.4268L28.8314 18.209H23.0567V16.0609H28.8314L26.5997 13.843C26.1812 13.4246 26.1812 12.7411 26.5997 12.3226Z" fill="white"/>
</svg>
