<svg width="30" height="30" viewBox="0 0 30 30" fill="none" xmlns="http://www.w3.org/2000/svg">
<path d="M14.6098 2.57422C17.6378 2.57422 20.1074 5.00147 20.1074 7.9898V13.8323H12.6614C12.1278 13.8323 11.7058 14.247 11.7058 14.7715C11.7058 15.2838 12.1278 15.7107 12.6614 15.7107H20.1074V21.5409C20.1074 24.5293 17.6378 26.9687 14.585 26.9687H8.54129C5.50084 26.9687 3.03125 24.5415 3.03125 21.5531V8.002C3.03125 5.00147 5.51325 2.57422 8.5537 2.57422H14.6098ZM23.2058 10.5637C23.5717 10.1855 24.1693 10.1855 24.5353 10.5515L28.0968 14.1009C28.2798 14.2838 28.3774 14.5156 28.3774 14.7717C28.3774 15.0157 28.2798 15.2596 28.0968 15.4304L24.5353 18.9798C24.3523 19.1627 24.1083 19.2603 23.8766 19.2603C23.6327 19.2603 23.3887 19.1627 23.2058 18.9798C22.8398 18.6139 22.8398 18.0162 23.2058 17.6503L25.1573 15.7109H20.1076V13.8325H25.1573L23.2058 11.8932C22.8398 11.5272 22.8398 10.9296 23.2058 10.5637Z" fill="white"/>
</svg>
