<svg width="35" height="34" viewBox="0 0 35 34" fill="none" xmlns="http://www.w3.org/2000/svg">
<path d="M16.7692 3.18591C20.2321 3.18591 23.0563 5.96171 23.0563 9.37914V16.0606H14.5411C13.9308 16.0606 13.4483 16.5348 13.4483 17.1346C13.4483 17.7205 13.9308 18.2087 14.5411 18.2087H23.0563V24.8762C23.0563 28.2936 20.2321 31.0833 16.7408 31.0833H9.82933C6.35229 31.0833 3.52808 28.3076 3.52808 24.8901V9.39309C3.52808 5.96171 6.36648 3.18591 9.84352 3.18591H16.7692ZM26.5995 12.3226C27.018 11.8902 27.7015 11.8902 28.1199 12.3087L32.193 16.3677C32.4022 16.577 32.5138 16.842 32.5138 17.1349C32.5138 17.4139 32.4022 17.6929 32.193 17.8881L28.1199 21.9472C27.9107 22.1564 27.6317 22.268 27.3667 22.268C27.0877 22.268 26.8088 22.1564 26.5995 21.9472C26.1811 21.5288 26.1811 20.8453 26.5995 20.4268L28.8313 18.209H23.0566V16.0609H28.8313L26.5995 13.843C26.1811 13.4246 26.1811 12.7411 26.5995 12.3226Z" fill="white"/>
</svg>
