<svg width="30" height="30" viewBox="0 0 30 30" fill="none" xmlns="http://www.w3.org/2000/svg">
<path d="M14.6098 2.57428C17.6378 2.57428 20.1074 5.00153 20.1074 7.98986V13.8323H12.6614C12.1278 13.8323 11.7058 14.2471 11.7058 14.7715C11.7058 15.2838 12.1278 15.7107 12.6614 15.7107H20.1074V21.541C20.1074 24.5293 17.6378 26.9688 14.585 26.9688H8.54129C5.50084 26.9688 3.03125 24.5415 3.03125 21.5532V8.00206C3.03125 5.00153 5.51325 2.57428 8.5537 2.57428H14.6098ZM23.2058 10.5637C23.5717 10.1856 24.1693 10.1856 24.5353 10.5515L28.0968 14.1009C28.2798 14.2839 28.3774 14.5156 28.3774 14.7718C28.3774 15.0157 28.2798 15.2597 28.0968 15.4304L24.5353 18.9798C24.3523 19.1628 24.1083 19.2604 23.8766 19.2604C23.6327 19.2604 23.3887 19.1628 23.2058 18.9798C22.8398 18.6139 22.8398 18.0162 23.2058 17.6503L25.1573 15.711H20.1076V13.8326H25.1573L23.2058 11.8932C22.8398 11.5273 22.8398 10.9296 23.2058 10.5637Z" fill="white"/>
</svg>
