<svg width="30" height="30" viewBox="0 0 30 30" fill="none" xmlns="http://www.w3.org/2000/svg">
<path d="M14.6097 2.57422C17.6378 2.57422 20.1073 5.00147 20.1073 7.9898V13.8323H12.6613C12.1277 13.8323 11.7058 14.247 11.7058 14.7715C11.7058 15.2838 12.1277 15.7107 12.6613 15.7107H20.1073V21.5409C20.1073 24.5293 17.6378 26.9687 14.5849 26.9687H8.54123C5.50078 26.9687 3.03119 24.5415 3.03119 21.5531V8.002C3.03119 5.00147 5.51319 2.57422 8.55364 2.57422H14.6097ZM23.2057 10.5637C23.5716 10.1855 24.1693 10.1855 24.5352 10.5515L28.0968 14.1009C28.2797 14.2838 28.3773 14.5156 28.3773 14.7717C28.3773 15.0157 28.2797 15.2596 28.0968 15.4304L24.5352 18.9798C24.3522 19.1627 24.1083 19.2603 23.8765 19.2603C23.6326 19.2603 23.3886 19.1627 23.2057 18.9798C22.8398 18.6139 22.8398 18.0162 23.2057 17.6503L25.1573 15.7109H20.1076V13.8325H25.1573L23.2057 11.8932C22.8398 11.5272 22.8398 10.9296 23.2057 10.5637Z" fill="white"/>
</svg>
