<svg width="25" height="24" viewBox="0 0 25 24" fill="none" xmlns="http://www.w3.org/2000/svg">
<path d="M22.1732 18.5531C21.5303 17.98 20.9675 17.323 20.4999 16.5998C19.9894 15.6015 19.6834 14.5113 19.5999 13.3931V10.0998C19.6043 8.34351 18.9672 6.64609 17.8084 5.32642C16.6495 4.00675 15.0486 3.15568 13.3065 2.93311V2.07311C13.3065 1.83706 13.2128 1.61069 13.0459 1.44378C12.879 1.27687 12.6526 1.18311 12.4165 1.18311C12.1805 1.18311 11.9541 1.27687 11.7872 1.44378C11.6203 1.61069 11.5265 1.83706 11.5265 2.07311V2.94644C9.80004 3.18506 8.21852 4.04128 7.07489 5.35651C5.93126 6.67174 5.30302 8.35687 5.30654 10.0998V13.3931C5.22304 14.5113 4.91705 15.6015 4.40654 16.5998C3.94712 17.3213 3.39333 17.9783 2.75987 18.5531C2.68876 18.6156 2.63176 18.6925 2.59268 18.7787C2.5536 18.8649 2.53332 18.9584 2.5332 19.0531V19.9598C2.5332 20.1366 2.60344 20.3062 2.72847 20.4312C2.85349 20.5562 3.02306 20.6264 3.19987 20.6264H21.7332C21.91 20.6264 22.0796 20.5562 22.2046 20.4312C22.3296 20.3062 22.3999 20.1366 22.3999 19.9598V19.0531C22.3997 18.9584 22.3795 18.8649 22.3404 18.7787C22.3013 18.6925 22.2443 18.6156 22.1732 18.5531ZM3.91987 19.2931C4.54014 18.6939 5.08627 18.0224 5.54654 17.2931C6.18961 16.0874 6.56482 14.7571 6.64654 13.3931V10.0998C6.6201 9.31846 6.75115 8.53982 7.0319 7.81022C7.31265 7.08061 7.73734 6.41496 8.2807 5.85291C8.82406 5.29085 9.47496 4.84388 10.1947 4.53862C10.9143 4.23336 11.6881 4.07604 12.4699 4.07604C13.2516 4.07604 14.0254 4.23336 14.7451 4.53862C15.4648 4.84388 16.1157 5.29085 16.659 5.85291C17.2024 6.41496 17.6271 7.08061 17.9078 7.81022C18.1886 8.53982 18.3196 9.31846 18.2932 10.0998V13.3931C18.3749 14.7571 18.7501 16.0874 19.3932 17.2931C19.8535 18.0224 20.3996 18.6939 21.0199 19.2931H3.91987Z" fill="white"/>
<path d="M12.5 22.8135C12.92 22.8038 13.323 22.6459 13.6378 22.3677C13.9526 22.0896 14.1588 21.709 14.22 21.2935H10.7134C10.7764 21.7203 10.9923 22.1098 11.3209 22.3894C11.6496 22.669 12.0686 22.8197 12.5 22.8135V22.8135Z" fill="white"/>
<circle cx="18.9565" cy="5.43701" r="3.5" fill="#F99A0E" stroke="white"/>
</svg>
