<svg width="30" height="30" viewBox="0 0 30 30" fill="none" xmlns="http://www.w3.org/2000/svg">
<path d="M16.1033 2.64423C17.0257 2.64423 17.8609 3.15651 18.3221 3.91274C18.5465 4.27866 18.6961 4.72996 18.6587 5.20565C18.6337 5.57157 18.7459 5.93748 18.9454 6.27901C19.5811 7.31577 20.9896 7.70609 22.0866 7.12062C23.3206 6.41318 24.8787 6.84008 25.5892 8.04761L26.4244 9.48689C27.1474 10.6944 26.7485 12.2435 25.502 12.9387C24.4425 13.5608 24.0685 14.9391 24.7042 15.988C24.9037 16.3173 25.128 16.5979 25.4771 16.7686C25.9133 17.0004 26.2499 17.3663 26.4867 17.7322C26.9479 18.4885 26.9105 19.4154 26.4618 20.2327L25.5892 21.6963C25.128 22.477 24.2679 22.9649 23.3829 22.9649C22.9466 22.9649 22.4605 22.8429 22.0616 22.5989C21.7375 22.3916 21.3636 22.3184 20.9647 22.3184C19.7307 22.3184 18.6961 23.3308 18.6587 24.5383C18.6587 25.941 17.5119 27.0387 16.0784 27.0387H14.3831C12.9372 27.0387 11.7904 25.941 11.7904 24.5383C11.7655 23.3308 10.7309 22.3184 9.49683 22.3184C9.08549 22.3184 8.71153 22.3916 8.39991 22.5989C8.00103 22.8429 7.50242 22.9649 7.07861 22.9649C6.18112 22.9649 5.32103 22.477 4.85983 21.6963L3.99974 20.2327C3.53853 19.4398 3.5136 18.4885 3.97481 17.7322C4.17425 17.3663 4.5482 17.0004 4.97201 16.7686C5.32103 16.5979 5.54541 16.3173 5.75731 15.988C6.38057 14.9391 6.00661 13.5608 4.94708 12.9387C3.71304 12.2435 3.31416 10.6944 4.02467 9.48689L4.85983 8.04761C5.5828 6.84008 7.12847 6.41318 8.37498 7.12062C9.45944 7.70609 10.868 7.31577 11.5037 6.27901C11.7032 5.93748 11.8153 5.57157 11.7904 5.20565C11.7655 4.72996 11.9026 4.27866 12.1394 3.91274C12.6006 3.15651 13.4358 2.66862 14.3457 2.64423H16.1033ZM15.2432 11.4019C13.2862 11.4019 11.7032 12.9387 11.7032 14.8537C11.7032 16.7686 13.2862 18.2933 15.2432 18.2933C17.2002 18.2933 18.7459 16.7686 18.7459 14.8537C18.7459 12.9387 17.2002 11.4019 15.2432 11.4019Z" fill="#5D7285"/>
</svg>
