<svg width="35" height="36" viewBox="0 0 35 36" fill="none" xmlns="http://www.w3.org/2000/svg">
<path d="M18.5329 3.52393C19.62 3.52393 20.6044 4.12771 21.148 5.01901C21.4124 5.45028 21.5887 5.98219 21.5446 6.54284C21.5152 6.97412 21.6475 7.40539 21.8825 7.80792C22.6318 9.02986 24.2919 9.48988 25.5848 8.79985C27.0392 7.96605 28.8757 8.4692 29.7131 9.89241L30.6974 11.5888C31.5495 13.012 31.0794 14.8377 29.6102 15.6571C28.3615 16.3903 27.9207 18.0147 28.67 19.2511C28.905 19.6392 29.1695 19.9698 29.5808 20.1711C30.095 20.4442 30.4917 20.8755 30.7709 21.3068C31.3144 22.1981 31.2704 23.2907 30.7415 24.2538L29.7131 25.9789C29.1695 26.899 28.1558 27.474 27.1127 27.474C26.5985 27.474 26.0255 27.3303 25.5554 27.0427C25.1734 26.7984 24.7327 26.7121 24.2625 26.7121C22.8081 26.7121 21.5887 27.9053 21.5446 29.3285C21.5446 30.9817 20.193 32.2755 18.5035 32.2755H16.5054C14.8012 32.2755 13.4496 30.9817 13.4496 29.3285C13.4202 27.9053 12.2009 26.7121 10.7464 26.7121C10.2616 26.7121 9.82084 26.7984 9.45355 27.0427C8.98342 27.3303 8.39576 27.474 7.89625 27.474C6.83847 27.474 5.82476 26.899 5.28118 25.9789L4.26746 24.2538C3.72388 23.3194 3.6945 22.1981 4.23808 21.3068C4.47315 20.8755 4.91389 20.4442 5.4134 20.1711C5.82476 19.9698 6.08921 19.6392 6.33896 19.2511C7.07353 18.0147 6.63279 16.3903 5.38402 15.6571C3.92956 14.8377 3.45943 13.012 4.29685 11.5888L5.28118 9.89241C6.13328 8.4692 7.95502 7.96605 9.42417 8.79985C10.7023 9.48988 12.3625 9.02986 13.1117 7.80792C13.3468 7.40539 13.479 6.97412 13.4496 6.54284C13.4202 5.98219 13.5818 5.45028 13.861 5.01901C14.4046 4.12771 15.3889 3.55268 16.4614 3.52393H18.5329ZM17.5192 13.8458C15.2126 13.8458 13.3468 15.6571 13.3468 17.9141C13.3468 20.1711 15.2126 21.9681 17.5192 21.9681C19.8257 21.9681 21.6475 20.1711 21.6475 17.9141C21.6475 15.6571 19.8257 13.8458 17.5192 13.8458Z" fill="#5D7285"/>
</svg>
