<svg width="30" height="30" viewBox="0 0 30 30" fill="none" xmlns="http://www.w3.org/2000/svg">
<path d="M16.1032 2.64453C17.0256 2.64453 17.8607 3.15682 18.322 3.91305C18.5463 4.27896 18.6959 4.73026 18.6585 5.20595C18.6336 5.57187 18.7458 5.93779 18.9452 6.27931C19.5809 7.31608 20.9895 7.70639 22.0864 7.12092C23.3204 6.41348 24.8786 6.84039 25.5891 8.04791L26.4243 9.48719C27.1472 10.6947 26.7483 12.2438 25.5018 12.939C24.4423 13.5611 24.0684 14.9394 24.7041 15.9883C24.9035 16.3177 25.1279 16.5982 25.4769 16.769C25.9132 17.0007 26.2497 17.3666 26.4866 17.7325C26.9478 18.4888 26.9104 19.4158 26.4616 20.233L25.5891 21.6966C25.1279 22.4773 24.2678 22.9652 23.3828 22.9652C22.9465 22.9652 22.4604 22.8432 22.0615 22.5992C21.7374 22.3919 21.3634 22.3187 20.9645 22.3187C19.7305 22.3187 18.6959 23.3311 18.6585 24.5386C18.6585 25.9413 17.5117 27.039 16.0782 27.039H14.383C12.937 27.039 11.7903 25.9413 11.7903 24.5386C11.7653 23.3311 10.7307 22.3187 9.49668 22.3187C9.08533 22.3187 8.71138 22.3919 8.39975 22.5992C8.00087 22.8432 7.50227 22.9652 7.07846 22.9652C6.18097 22.9652 5.32088 22.4773 4.85967 21.6966L3.99958 20.233C3.53838 19.4401 3.51345 18.4888 3.97465 17.7325C4.1741 17.3666 4.54805 17.0007 4.97186 16.769C5.32088 16.5982 5.54525 16.3177 5.75716 15.9883C6.38041 14.9394 6.00646 13.5611 4.94693 12.939C3.71289 12.2438 3.31401 10.6947 4.02451 9.48719L4.85967 8.04791C5.58265 6.84039 7.12832 6.41348 8.37482 7.12092C9.45929 7.70639 10.8678 7.31608 11.5036 6.27931C11.703 5.93779 11.8152 5.57187 11.7903 5.20595C11.7653 4.73026 11.9024 4.27896 12.1393 3.91305C12.6005 3.15682 13.4356 2.66893 14.3456 2.64453H16.1032ZM15.2431 11.4022C13.2861 11.4022 11.703 12.939 11.703 14.854C11.703 16.769 13.2861 18.2936 15.2431 18.2936C17.2001 18.2936 18.7458 16.769 18.7458 14.854C18.7458 12.939 17.2001 11.4022 15.2431 11.4022Z" fill="#5D7285"/>
</svg>
