<svg width="35" height="36" viewBox="0 0 35 36" fill="none" xmlns="http://www.w3.org/2000/svg">
<path d="M18.5328 3.52393C19.62 3.52393 20.6043 4.12771 21.1479 5.01901C21.4123 5.45028 21.5886 5.98219 21.5446 6.54284C21.5152 6.97412 21.6474 7.40539 21.8825 7.80792C22.6317 9.02986 24.2919 9.48988 25.5847 8.79985C27.0392 7.96605 28.8756 8.4692 29.713 9.89241L30.6973 11.5888C31.5494 13.012 31.0793 14.8377 29.6102 15.6571C28.3614 16.3903 27.9207 18.0147 28.6699 19.2511C28.905 19.6392 29.1694 19.9698 29.5808 20.1711C30.095 20.4442 30.4917 20.8755 30.7708 21.3068C31.3144 22.1981 31.2703 23.2907 30.7414 24.2538L29.713 25.9789C29.1694 26.899 28.1557 27.474 27.1126 27.474C26.5984 27.474 26.0255 27.3303 25.5553 27.0427C25.1733 26.7984 24.7326 26.7121 24.2625 26.7121C22.808 26.7121 21.5886 27.9053 21.5446 29.3285C21.5446 30.9817 20.1929 32.2755 18.5034 32.2755H16.5054C14.8012 32.2755 13.4496 30.9817 13.4496 29.3285C13.4202 27.9053 12.2008 26.7121 10.7463 26.7121C10.2615 26.7121 9.82077 26.7984 9.45349 27.0427C8.98336 27.3303 8.3957 27.474 7.89619 27.474C6.83841 27.474 5.8247 26.899 5.28111 25.9789L4.2674 24.2538C3.72382 23.3194 3.69444 22.1981 4.23802 21.3068C4.47308 20.8755 4.91383 20.4442 5.41334 20.1711C5.8247 19.9698 6.08914 19.6392 6.3389 19.2511C7.07347 18.0147 6.63273 16.3903 5.38395 15.6571C3.9295 14.8377 3.45937 13.012 4.29679 11.5888L5.28111 9.89241C6.13322 8.4692 7.95496 7.96605 9.42411 8.79985C10.7023 9.48988 12.3624 9.02986 13.1117 7.80792C13.3467 7.40539 13.4789 6.97412 13.4496 6.54284C13.4202 5.98219 13.5818 5.45028 13.8609 5.01901C14.4045 4.12771 15.3888 3.55268 16.4613 3.52393H18.5328ZM17.5191 13.8458C15.2125 13.8458 13.3467 15.6571 13.3467 17.9141C13.3467 20.1711 15.2125 21.9681 17.5191 21.9681C19.8257 21.9681 21.6474 20.1711 21.6474 17.9141C21.6474 15.6571 19.8257 13.8458 17.5191 13.8458Z" fill="#5D7285"/>
</svg>
