<svg width="30" height="30" viewBox="0 0 30 30" fill="none" xmlns="http://www.w3.org/2000/svg">
<path d="M16.1033 2.64453C17.0257 2.64453 17.8609 3.15682 18.3221 3.91305C18.5465 4.27896 18.6961 4.73026 18.6587 5.20595C18.6337 5.57187 18.7459 5.93779 18.9454 6.27931C19.5811 7.31608 20.9896 7.70639 22.0866 7.12092C23.3206 6.41348 24.8787 6.84039 25.5892 8.04791L26.4244 9.48719C27.1474 10.6947 26.7485 12.2438 25.502 12.939C24.4425 13.5611 24.0685 14.9394 24.7042 15.9883C24.9037 16.3177 25.128 16.5982 25.4771 16.769C25.9133 17.0007 26.2499 17.3666 26.4867 17.7325C26.9479 18.4888 26.9105 19.4158 26.4618 20.233L25.5892 21.6966C25.128 22.4773 24.2679 22.9652 23.3829 22.9652C22.9466 22.9652 22.4605 22.8432 22.0616 22.5992C21.7375 22.3919 21.3636 22.3187 20.9647 22.3187C19.7307 22.3187 18.6961 23.3311 18.6587 24.5386C18.6587 25.9413 17.5119 27.039 16.0784 27.039H14.3831C12.9372 27.039 11.7904 25.9413 11.7904 24.5386C11.7655 23.3311 10.7309 22.3187 9.49683 22.3187C9.08549 22.3187 8.71153 22.3919 8.39991 22.5992C8.00103 22.8432 7.50242 22.9652 7.07861 22.9652C6.18112 22.9652 5.32103 22.4773 4.85983 21.6966L3.99974 20.233C3.53853 19.4401 3.5136 18.4888 3.97481 17.7325C4.17425 17.3666 4.5482 17.0007 4.97201 16.769C5.32103 16.5982 5.54541 16.3177 5.75731 15.9883C6.38057 14.9394 6.00661 13.5611 4.94708 12.939C3.71304 12.2438 3.31416 10.6947 4.02467 9.48719L4.85983 8.04791C5.5828 6.84039 7.12847 6.41348 8.37498 7.12092C9.45944 7.70639 10.868 7.31608 11.5037 6.27931C11.7032 5.93779 11.8153 5.57187 11.7904 5.20595C11.7655 4.73026 11.9026 4.27896 12.1394 3.91305C12.6006 3.15682 13.4358 2.66893 14.3457 2.64453H16.1033ZM15.2432 11.4022C13.2862 11.4022 11.7032 12.939 11.7032 14.854C11.7032 16.769 13.2862 18.2936 15.2432 18.2936C17.2002 18.2936 18.7459 16.769 18.7459 14.854C18.7459 12.939 17.2002 11.4022 15.2432 11.4022Z" fill="#5D7285"/>
</svg>
