<svg width="30" height="30" viewBox="0 0 30 30" fill="none" xmlns="http://www.w3.org/2000/svg">
<path d="M16.1032 2.64453C17.0256 2.64453 17.8608 3.15682 18.322 3.91305C18.5464 4.27896 18.6959 4.73026 18.6585 5.20595C18.6336 5.57187 18.7458 5.93779 18.9452 6.27931C19.581 7.31608 20.9895 7.70639 22.0864 7.12092C23.3205 6.41348 24.8786 6.84039 25.5891 8.04791L26.4243 9.48719C27.1473 10.6947 26.7484 12.2438 25.5019 12.939C24.4423 13.5611 24.0684 14.9394 24.7041 15.9883C24.9035 16.3177 25.1279 16.5982 25.4769 16.769C25.9132 17.0007 26.2498 17.3666 26.4866 17.7325C26.9478 18.4888 26.9104 19.4158 26.4617 20.233L25.5891 21.6966C25.1279 22.4773 24.2678 22.9652 23.3828 22.9652C22.9465 22.9652 22.4604 22.8432 22.0615 22.5992C21.7374 22.3919 21.3635 22.3187 20.9646 22.3187C19.7305 22.3187 18.6959 23.3311 18.6585 24.5386C18.6585 25.9413 17.5118 27.039 16.0783 27.039H14.383C12.9371 27.039 11.7903 25.9413 11.7903 24.5386C11.7654 23.3311 10.7308 22.3187 9.49671 22.3187C9.08536 22.3187 8.71141 22.3919 8.39979 22.5992C8.0009 22.8432 7.5023 22.9652 7.07849 22.9652C6.181 22.9652 5.32091 22.4773 4.8597 21.6966L3.99961 20.233C3.53841 19.4401 3.51348 18.4888 3.97468 17.7325C4.17413 17.3666 4.54808 17.0007 4.97189 16.769C5.32091 16.5982 5.54528 16.3177 5.75719 15.9883C6.38044 14.9394 6.00649 13.5611 4.94696 12.939C3.71292 12.2438 3.31404 10.6947 4.02454 9.48719L4.8597 8.04791C5.58268 6.84039 7.12835 6.41348 8.37486 7.12092C9.45932 7.70639 10.8679 7.31608 11.5036 6.27931C11.703 5.93779 11.8152 5.57187 11.7903 5.20595C11.7654 4.73026 11.9025 4.27896 12.1393 3.91305C12.6005 3.15682 13.4357 2.66893 14.3456 2.64453H16.1032ZM15.2431 11.4022C13.2861 11.4022 11.703 12.939 11.703 14.854C11.703 16.769 13.2861 18.2936 15.2431 18.2936C17.2001 18.2936 18.7458 16.769 18.7458 14.854C18.7458 12.939 17.2001 11.4022 15.2431 11.4022Z" fill="#5D7285"/>
</svg>
